<svg width="33" height="32" viewBox="0 0 33 32" fill="none" xmlns="http://www.w3.org/2000/svg">
<path d="M31.9771 19.3325H13.6446V1C13.6446 0.734784 13.5392 0.48043 13.3517 0.292893C13.1641 0.105357 12.9098 0 12.6446 0L1.97705 0C1.71183 0 1.45748 0.105357 1.26994 0.292893C1.08241 0.48043 0.977051 0.734784 0.977051 1L0.977051 31C0.977051 31.2652 1.08241 31.5196 1.26994 31.7071C1.45748 31.8946 1.71183 32 1.97705 32H31.9771C32.2423 32 32.4966 31.8946 32.6842 31.7071C32.8717 31.5196 32.9771 31.2652 32.9771 31V20.3325C32.9771 20.0673 32.8717 19.8129 32.6842 19.6254C32.4966 19.4379 32.2423 19.3325 31.9771 19.3325ZM30.9771 30H3.68455L6.43455 27.25C6.48117 27.2035 6.51818 27.1484 6.54348 27.0876C6.56877 27.0268 6.58185 26.9617 6.58196 26.8959C6.58208 26.8301 6.56923 26.7649 6.54415 26.704C6.51907 26.6432 6.48226 26.5879 6.4358 26.5413C6.38935 26.4946 6.33416 26.4576 6.2734 26.4323C6.21264 26.407 6.1475 26.394 6.08168 26.3938C6.01587 26.3937 5.95068 26.4066 5.88983 26.4316C5.82898 26.4567 5.77367 26.4935 5.72705 26.54L2.97705 29.29V2H11.6446V2.25H7.31955C7.12064 2.25 6.92987 2.32902 6.78922 2.46967C6.64857 2.61032 6.56955 2.80109 6.56955 3C6.56955 3.19891 6.64857 3.38968 6.78922 3.53033C6.92987 3.67098 7.12064 3.75 7.31955 3.75H11.6446V6.25H10.0821C9.88314 6.25 9.69237 6.32902 9.55172 6.46967C9.41107 6.61032 9.33205 6.80109 9.33205 7C9.33205 7.19891 9.41107 7.38968 9.55172 7.53033C9.69237 7.67098 9.88314 7.75 10.0821 7.75H11.6446V10.25H7.31955C7.12064 10.25 6.92987 10.329 6.78922 10.4697C6.64857 10.6103 6.56955 10.8011 6.56955 11C6.56955 11.1989 6.64857 11.3897 6.78922 11.5303C6.92987 11.671 7.12064 11.75 7.31955 11.75H11.6446V14.25H10.0821C9.88314 14.25 9.69237 14.329 9.55172 14.4697C9.41107 14.6103 9.33205 14.8011 9.33205 15C9.33205 15.1989 9.41107 15.3897 9.55172 15.5303C9.69237 15.671 9.88314 15.75 10.0821 15.75H11.6446V18.25H7.31955C7.12064 18.25 6.92987 18.329 6.78922 18.4697C6.64857 18.6103 6.56955 18.8011 6.56955 19C6.56955 19.1989 6.64857 19.3897 6.78922 19.5303C6.92987 19.671 7.12064 19.75 7.31955 19.75H11.6446V20.3325C11.6461 20.4171 11.6587 20.5012 11.6821 20.5825L8.36205 23.91C8.30971 23.9548 8.2672 24.01 8.23719 24.072C8.20718 24.134 8.19031 24.2016 8.18765 24.2705C8.18499 24.3393 8.19659 24.408 8.22173 24.4722C8.24687 24.5363 8.285 24.5946 8.33373 24.6433C8.38245 24.6921 8.44073 24.7302 8.50489 24.7553C8.56905 24.7805 8.63772 24.7921 8.70658 24.7894C8.77544 24.7867 8.843 24.7699 8.90504 24.7399C8.96707 24.7099 9.02223 24.6673 9.06705 24.615L12.3871 21.295C12.4684 21.3184 12.5524 21.331 12.6371 21.3325H13.2271V25.5825C13.2271 25.7814 13.3061 25.9722 13.4467 26.1128C13.5874 26.2535 13.7781 26.3325 13.9771 26.3325C14.176 26.3325 14.3667 26.2535 14.5074 26.1128C14.648 25.9722 14.7271 25.7814 14.7271 25.5825V21.3325H17.2271V22.815C17.2271 23.0139 17.3061 23.2047 17.4467 23.3453C17.5874 23.486 17.7781 23.565 17.9771 23.565C18.176 23.565 18.3667 23.486 18.5074 23.3453C18.648 23.2047 18.7271 23.0139 18.7271 22.815V21.3325H21.2271V25.5825C21.2271 25.7814 21.3061 25.9722 21.4467 26.1128C21.5874 26.2535 21.7781 26.3325 21.9771 26.3325C22.176 26.3325 22.3667 26.2535 22.5074 26.1128C22.648 25.9722 22.7271 25.7814 22.7271 25.5825V21.3325H25.2271V22.815C25.2271 23.0139 25.3061 23.2047 25.4467 23.3453C25.5874 23.486 25.7781 23.565 25.9771 23.565C26.176 23.565 26.3667 23.486 26.5074 23.3453C26.648 23.2047 26.7271 23.0139 26.7271 22.815V21.3325H29.2271V25.5825C29.2271 25.7814 29.3061 25.9722 29.4467 26.1128C29.5874 26.2535 29.7781 26.3325 29.9771 26.3325C30.176 26.3325 30.3667 26.2535 30.5074 26.1128C30.648 25.9722 30.7271 25.7814 30.7271 25.5825V21.3325H30.9771V30Z" fill="url(#paint0_linear_0_1)"/>
<path d="M20.1796 13.5975H28.2521C28.305 13.5975 28.3577 13.5924 28.4096 13.5825L28.4771 13.5625L28.5571 13.5375C28.5838 13.5248 28.6096 13.5106 28.6346 13.495C28.6554 13.4857 28.6755 13.4748 28.6946 13.4625C28.7392 13.434 28.7803 13.4004 28.8171 13.3625L32.7446 9.435C32.7519 9.42806 32.7586 9.42054 32.7646 9.4125L32.8171 9.3475L32.8596 9.2875C32.8746 9.265 32.8846 9.2425 32.8971 9.22C32.9096 9.1975 32.9196 9.1725 32.9271 9.1475C32.9346 9.1225 32.9421 9.1 32.9496 9.075C32.9571 9.05 32.9496 9.025 32.9671 9C32.9846 8.975 32.9671 8.9475 32.9671 8.9225C32.9671 8.8975 32.9671 8.87 32.9671 8.845C32.9671 8.82 32.9671 8.795 32.9671 8.77C32.9646 8.74211 32.9595 8.71451 32.9521 8.6875C32.9521 8.6875 32.9521 8.6675 32.9521 8.6575L31.2021 2.33C31.165 2.19695 31.0942 2.07573 30.9966 1.97807C30.8989 1.8804 30.7777 1.80959 30.6446 1.7725L24.3196 0.0275H24.2896C24.2623 0.0156265 24.2338 0.00641735 24.2046 0L24.1346 0H24.0521H23.9771L23.8971 0.0175L23.8296 0.0375L23.7521 0.0725L23.6896 0.105C23.667 0.119408 23.6453 0.135275 23.6246 0.1525C23.6027 0.167775 23.5818 0.184478 23.5621 0.2025L23.5396 0.2225L19.6146 4.16C19.576 4.1962 19.5424 4.2374 19.5146 4.2825C19.5023 4.30166 19.4915 4.32172 19.4821 4.3425C19.4665 4.3675 19.4523 4.39337 19.4396 4.42C19.4298 4.44618 19.4215 4.47289 19.4146 4.5C19.4146 4.5225 19.3996 4.545 19.3946 4.5675C19.3847 4.61941 19.3797 4.67214 19.3796 4.725V12.7975C19.3796 13.0097 19.4639 13.2132 19.614 13.3632C19.764 13.5132 19.9675 13.5975 20.1796 13.5975ZM31.2846 8.635L28.5846 11.335C28.5127 11.2709 28.4237 11.229 28.3285 11.2143C28.2333 11.1996 28.1359 11.2127 28.0479 11.252C27.96 11.2914 27.8853 11.3553 27.8328 11.4361C27.7803 11.5169 27.7523 11.6112 27.7521 11.7075V12H20.9771V5.225H21.2671C21.3997 5.225 21.5269 5.17232 21.6207 5.07855C21.7145 4.98479 21.7671 4.85761 21.7671 4.725C21.7669 4.60227 21.7215 4.48393 21.6396 4.3925L24.3396 1.6925L29.2271 3.04L28.3321 3.935C28.2625 4.00507 28.2152 4.0942 28.1961 4.19115C28.1771 4.28809 28.1872 4.38851 28.2252 4.47971C28.2631 4.57092 28.3273 4.64883 28.4095 4.70361C28.4917 4.75839 28.5883 4.78758 28.6871 4.7875C28.8192 4.78761 28.9459 4.73548 29.0396 4.6425L29.9371 3.75L31.2846 8.635Z" fill="url(#paint1_linear_0_1)"/>
<path d="M28.2271 8.38L25.1771 7.79L24.5971 4.75C24.5846 4.68549 24.5596 4.62407 24.5234 4.56924C24.4871 4.51441 24.4405 4.46726 24.386 4.43046C24.3316 4.39366 24.2704 4.36795 24.2061 4.35479C24.1417 4.34163 24.0754 4.34128 24.0108 4.35375C23.9463 4.36623 23.8849 4.39129 23.8301 4.4275C23.7753 4.46371 23.7281 4.51037 23.6913 4.56481C23.6545 4.61925 23.6288 4.6804 23.6156 4.74478C23.6025 4.80915 23.6021 4.87549 23.6146 4.94L24.2271 8.05L22.4521 9.825C22.3817 9.89479 22.3337 9.98391 22.3141 10.081C22.2945 10.1782 22.3042 10.279 22.3419 10.3706C22.3797 10.4622 22.4439 10.5405 22.5262 10.5956C22.6086 10.6507 22.7055 10.6801 22.8046 10.68C22.8706 10.6801 22.9359 10.667 22.9968 10.6417C23.0578 10.6164 23.1131 10.5793 23.1596 10.5325L24.9271 8.75L28.0471 9.355H28.1446C28.2772 9.36727 28.4093 9.32635 28.5117 9.24126C28.6141 9.15616 28.6786 9.03386 28.6908 8.90125C28.7031 8.76864 28.6622 8.63659 28.5771 8.53415C28.492 8.43171 28.3697 8.36727 28.2371 8.355L28.2271 8.38Z" fill="url(#paint2_linear_0_1)"/>
<defs>
<linearGradient id="paint0_linear_0_1" x1="16.9771" y1="0" x2="16.9771" y2="32" gradientUnits="userSpaceOnUse">
<stop stop-color="#B64C70"/>
<stop offset="1" stop-color="#5B0DAF"/>
</linearGradient>
<linearGradient id="paint1_linear_0_1" x1="26.1773" y1="0" x2="26.1773" y2="13.5975" gradientUnits="userSpaceOnUse">
<stop stop-color="#B64C70"/>
<stop offset="1" stop-color="#5B0DAF"/>
</linearGradient>
<linearGradient id="paint2_linear_0_1" x1="25.4986" y1="4.34465" x2="25.4986" y2="10.68" gradientUnits="userSpaceOnUse">
<stop stop-color="#B64C70"/>
<stop offset="1" stop-color="#5B0DAF"/>
</linearGradient>
</defs>
</svg>
