<?xml version="1.0" encoding="utf-8"?>
<!-- Generator: Adobe Illustrator 26.3.1, SVG Export Plug-In . SVG Version: 6.00 Build 0)  -->
<svg version="1.1" id="Layer_1" xmlns="http://www.w3.org/2000/svg" xmlns:xlink="http://www.w3.org/1999/xlink" x="0px" y="0px"
	 viewBox="0 0 128 128" style="enable-background:new 0 0 128 128;" xml:space="preserve">
<style type="text/css">
	.st0{fill:url(#SVGID_1_);}
</style>
<g>
	<g>
		
			<linearGradient id="SVGID_1_" gradientUnits="userSpaceOnUse" x1="6.6725" y1="122.2443" x2="122.9335" y2="5.9833" gradientTransform="matrix(1 0 0 1 4 0)">
			<stop  offset="0" style="stop-color:#5E17A9"/>
			<stop  offset="1" style="stop-color:#F45787"/>
		</linearGradient>
		<path class="st0" d="M107.09,44.94c-2.2,0-3.98,1.79-3.98,3.99v37.1l-0.7-0.7c-0.78-0.78-2.04-0.78-2.82,0
			c-0.78,0.78-0.78,2.04,0,2.82l2.94,2.94l-40.5,27.12l-40.5-27.12l2.94-2.94c0.78-0.78,0.78-2.04,0-2.82
			c-0.78-0.78-2.04-0.78-2.82,0l-0.7,0.7v-37.1c0-2.2-1.78-3.99-3.98-3.99c-2.2,0-3.98,1.79-3.98,3.99v43.91c0,0,0,0,0,0.01
			c0,0.26,0.03,0.52,0.08,0.78c0.02,0.12,0.07,0.23,0.1,0.35c0.04,0.13,0.07,0.27,0.12,0.39c0.05,0.12,0.12,0.23,0.18,0.34
			c0.06,0.12,0.11,0.23,0.19,0.34c0.07,0.11,0.17,0.21,0.25,0.31c0.08,0.1,0.15,0.2,0.24,0.29c0.18,0.19,0.39,0.35,0.6,0.5
			c0,0,0,0,0,0l45.05,30.17c0.67,0.45,1.44,0.67,2.21,0.67s1.54-0.22,2.21-0.67l45.05-30.17c0,0,0,0,0,0
			c0.22-0.15,0.42-0.31,0.6-0.5c0.09-0.09,0.16-0.19,0.24-0.29c0.08-0.1,0.18-0.2,0.25-0.31c0.07-0.11,0.13-0.23,0.19-0.34
			c0.06-0.11,0.13-0.22,0.18-0.34c0.05-0.13,0.08-0.26,0.12-0.39c0.03-0.12,0.08-0.23,0.1-0.35c0.05-0.26,0.08-0.52,0.08-0.78
			c0,0,0,0,0-0.01V48.93C111.07,46.72,109.29,44.94,107.09,44.94z M62.04,95.73c1.1,0,1.99-0.89,1.99-1.99V72.92l21.54-12.67
			c0.95-0.56,1.27-1.78,0.71-2.73c-0.56-0.95-1.78-1.27-2.72-0.71L62.04,69.47l-7.77-4.57c-0.95-0.56-2.17-0.24-2.72,0.71
			c-0.56,0.95-0.24,2.17,0.71,2.73l7.79,4.58v20.81C60.04,94.84,60.94,95.73,62.04,95.73z M120.78,18.83L94.58,1.8
			c-3.24-2.11-7.53,0.22-7.53,4.09V6.4c0,0.87-0.72,1.57-1.59,1.54C75.95,7.7,27.01,9.37,27.01,69.4c0,10.12,0.15,12.08,0.65,15.31
			c0.35,2.26,1.71,2.92,2.03-0.42C30.01,81,39.8,36.94,85.48,35.95c0.86-0.02,1.57,0.69,1.57,1.55v2.37c0,3.86,4.28,6.19,7.52,4.09
			L120.77,27C123.74,25.09,123.74,20.75,120.78,18.83z"/>
	</g>
</g>
</svg>
