<svg width="26" height="28" viewBox="0 0 26 28" fill="none" xmlns="http://www.w3.org/2000/svg">
<path fill-rule="evenodd" clip-rule="evenodd" d="M13.0001 27.5845C13.2595 27.5845 13.5132 27.5145 13.7364 27.3832L16.3016 25.8731L16.7755 25.5941L16.2175 24.6462L15.7435 24.9252L13.5501 26.2164L13.5501 22.5796V22.0296H12.4501V22.5796L12.4501 26.2164L10.2566 24.9252L9.78262 24.6462L9.2246 25.5941L9.69857 25.8731L12.2637 27.3832C12.4869 27.5145 12.7406 27.5845 13.0001 27.5845ZM20.8739 21.9051L20.3999 22.1842L20.9579 23.1321L21.4319 22.8531L23.9971 21.3431C24.2274 21.2075 24.4161 21.012 24.5461 20.7794C24.676 20.5469 24.7435 20.2843 24.7435 20.0183V17.0092V16.4592H23.6435V17.0092V19.6215L20.6198 17.8297L20.1466 17.5493L19.5858 18.4956L20.059 18.776L23.1141 20.5864L20.8739 21.9051ZM4.56823 22.8531L5.04221 23.1321L5.60023 22.1842L5.12626 21.9051L2.88601 20.5864L5.94112 18.776L6.41429 18.4956L5.85351 17.5493L5.38035 17.8297L2.35659 19.6215L2.35659 17.0092V16.4592H1.25659V17.0092V20.0183C1.25659 20.2843 1.32416 20.547 1.45408 20.7794C1.58408 21.012 1.77269 21.2075 2.00306 21.3431L4.56823 22.8531ZM23.6435 10.9909V11.5409H24.7435V10.9909L24.7435 7.98178C24.7435 7.71574 24.676 7.45313 24.5461 7.22065C24.4161 6.98802 24.2274 6.7926 23.9971 6.65699L21.4319 5.14697L20.9579 4.86796L20.3999 5.81591L20.8739 6.09492L23.1141 7.41367L20.059 9.22408L19.5858 9.50447L20.1466 10.4508L20.6198 10.1704L23.6435 8.37858V10.9909ZM1.25659 10.9909V11.5409H2.35659V10.9909L2.35659 8.37858L5.38035 10.1704L5.85351 10.4508L6.41429 9.50447L5.94112 9.22408L2.88601 7.41367L5.12625 6.09493L5.60023 5.81591L5.04221 4.86796L4.56823 5.14698L2.00306 6.65699C1.77268 6.79261 1.58408 6.98803 1.45408 7.22065C1.32416 7.45313 1.25659 7.71574 1.25659 7.98178V10.9909ZM12.4501 5.42047V5.97046H13.5501V5.42047L13.5501 1.78368L15.7435 3.07489L16.2175 3.3539L16.7755 2.40595L16.3016 2.12694L13.7364 0.616918C13.5132 0.485552 13.2596 0.415527 13.0001 0.415527C12.7406 0.415527 12.4869 0.485552 12.2637 0.616919L9.69857 2.12694L9.2246 2.40595L9.78262 3.3539L10.2566 3.07489L12.4501 1.78368L12.4501 5.42047ZM17.1842 12.097L16.7163 12.386L13.4948 14.3761L13.4948 17.2878V17.8378H12.3948V17.2878L12.3948 14.2538L9.18659 12.3939L8.71077 12.1181L9.26245 11.1664L9.73828 11.4423L13.0464 13.3601L16.1382 11.4502L16.6061 11.1611L17.1842 12.097Z" fill="url(#paint0_linear_24_262)"/>
<path d="M13.7364 27.3832L13.5842 27.1246L13.7364 27.3832ZM16.3016 25.8731L16.4537 26.1317L16.3016 25.8731ZM16.7755 25.5941L16.9277 25.8527L17.1863 25.7005L17.0341 25.4419L16.7755 25.5941ZM16.2175 24.6462L16.476 24.494L16.3239 24.2355L16.0653 24.3876L16.2175 24.6462ZM15.7435 24.9252L15.5913 24.6667L15.7435 24.9252ZM13.5501 26.2164H13.2501V26.7411L13.7023 26.4749L13.5501 26.2164ZM13.5501 22.5796H13.2501H13.5501ZM13.5501 22.0296H13.8501V21.7296H13.5501V22.0296ZM12.4501 22.0296V21.7296H12.1501V22.0296H12.4501ZM12.4501 22.5796H12.1501H12.4501ZM12.4501 26.2164L12.2979 26.4749L12.7501 26.7411V26.2164H12.4501ZM10.2566 24.9252L10.1044 25.1837L10.2566 24.9252ZM9.78262 24.6462L9.93481 24.3876L9.67628 24.2355L9.52409 24.494L9.78262 24.6462ZM9.2246 25.5941L8.96607 25.4419L8.81388 25.7005L9.07241 25.8527L9.2246 25.5941ZM9.69857 25.8731L9.85076 25.6146H9.85076L9.69857 25.8731ZM12.2637 27.3832L12.1116 27.6417L12.1116 27.6417L12.2637 27.3832ZM20.3999 22.1842L20.2477 21.9256L19.9892 22.0778L20.1414 22.3363L20.3999 22.1842ZM20.8739 21.9051L21.0261 22.1637L20.8739 21.9051ZM20.9579 23.1321L20.6994 23.2843L20.8516 23.5428L21.1101 23.3906L20.9579 23.1321ZM21.4319 22.8531L21.2797 22.5946H21.2797L21.4319 22.8531ZM23.9971 21.3431L24.1493 21.6016H24.1493L23.9971 21.3431ZM24.5461 20.7794L24.2842 20.6331H24.2842L24.5461 20.7794ZM24.7435 16.4592H25.0435V16.1592H24.7435V16.4592ZM23.6435 16.4592V16.1592H23.3435V16.4592H23.6435ZM23.6435 19.6215L23.4906 19.8796L23.9435 20.148V19.6215H23.6435ZM20.6198 17.8297L20.7727 17.5716L20.6198 17.8297ZM20.1466 17.5493L20.2996 17.2912L20.0415 17.1383L19.8885 17.3963L20.1466 17.5493ZM19.5858 18.4956L19.3278 18.3427L19.1748 18.6008L19.4329 18.7537L19.5858 18.4956ZM20.059 18.776L19.9061 19.0341L20.059 18.776ZM23.1141 20.5864L23.2663 20.8449L23.704 20.5873L23.2671 20.3283L23.1141 20.5864ZM5.04221 23.1321L4.89002 23.3906L5.14855 23.5428L5.30074 23.2843L5.04221 23.1321ZM4.56823 22.8531L4.41604 23.1116H4.41605L4.56823 22.8531ZM5.60023 22.1842L5.85876 22.3363L6.01095 22.0778L5.75242 21.9256L5.60023 22.1842ZM5.12626 21.9051L5.27844 21.6466L5.12626 21.9051ZM2.88601 20.5864L2.73307 20.3283L2.29609 20.5873L2.73382 20.8449L2.88601 20.5864ZM5.94112 18.776L6.09406 19.0341H6.09406L5.94112 18.776ZM6.41429 18.4956L6.56723 18.7537L6.82531 18.6008L6.67238 18.3427L6.41429 18.4956ZM5.85351 17.5493L6.1116 17.3963L5.95866 17.1383L5.70057 17.2912L5.85351 17.5493ZM5.38035 17.8297L5.22741 17.5716L5.38035 17.8297ZM2.35659 19.6215H2.05659L2.05659 20.148L2.50953 19.8796L2.35659 19.6215ZM2.35659 17.0092H2.05659H2.35659ZM2.35659 16.4592H2.65659V16.1592H2.35659V16.4592ZM1.25659 16.4592V16.1592H0.956592V16.4592H1.25659ZM1.45408 20.7794L1.71596 20.6331L1.71596 20.6331L1.45408 20.7794ZM2.00306 21.3431L2.15525 21.0846H2.15525L2.00306 21.3431ZM23.6435 11.5409H23.3435V11.8409H23.6435V11.5409ZM24.7435 11.5409V11.8409H25.0435V11.5409H24.7435ZM24.7435 10.9909H25.0435H24.7435ZM24.7435 7.98178H24.4435H24.7435ZM24.5461 7.22065L24.8079 7.07429V7.07429L24.5461 7.22065ZM23.9971 6.65699L23.8449 6.91552L23.9971 6.65699ZM21.4319 5.14697L21.5841 4.88844L21.4319 5.14697ZM20.9579 4.86796L21.1101 4.60943L20.8516 4.45724L20.6994 4.71578L20.9579 4.86796ZM20.3999 5.81591L20.1414 5.66373L19.9892 5.92226L20.2477 6.07445L20.3999 5.81591ZM20.8739 6.09492L21.0261 5.83639L20.8739 6.09492ZM23.1141 7.41367L23.2671 7.67176L23.704 7.41282L23.2663 7.15514L23.1141 7.41367ZM20.059 9.22408L19.9061 8.96599V8.96599L20.059 9.22408ZM19.5858 9.50447L19.4329 9.24638L19.1748 9.39932L19.3278 9.65741L19.5858 9.50447ZM20.1466 10.4508L19.8885 10.6037L20.0415 10.8618L20.2996 10.7089L20.1466 10.4508ZM20.6198 10.1704L20.7727 10.4285L20.6198 10.1704ZM23.6435 8.37858H23.9435V7.85209L23.4906 8.1205L23.6435 8.37858ZM1.25659 11.5409H0.956592V11.8409H1.25659V11.5409ZM2.35659 11.5409V11.8409H2.65659V11.5409H2.35659ZM2.35659 10.9909H2.65659H2.65659H2.35659ZM2.35659 8.37858L2.50953 8.1205L2.05659 7.85209L2.05659 8.37858H2.35659ZM5.38035 10.1704L5.53329 9.91232L5.38035 10.1704ZM5.85351 10.4508L5.70057 10.7089L5.95866 10.8618L6.1116 10.6037L5.85351 10.4508ZM6.41429 9.50447L6.67237 9.65741L6.82531 9.39932L6.56722 9.24638L6.41429 9.50447ZM5.94112 9.22408L6.09406 8.96599L6.09406 8.96599L5.94112 9.22408ZM2.88601 7.41367L2.73382 7.15514L2.29609 7.41282L2.73307 7.67176L2.88601 7.41367ZM5.12625 6.09493L5.27844 6.35346L5.12625 6.09493ZM5.60023 5.81591L5.75242 6.07445L6.01095 5.92226L5.85876 5.66373L5.60023 5.81591ZM5.04221 4.86796L5.30074 4.71578L5.14855 4.45724L4.89002 4.60943L5.04221 4.86796ZM4.56823 5.14698L4.41604 4.88844H4.41604L4.56823 5.14698ZM2.00306 6.65699L1.85087 6.39846L1.85087 6.39846L2.00306 6.65699ZM1.45408 7.22065L1.1922 7.0743L1.1922 7.0743L1.45408 7.22065ZM12.4501 5.97046H12.1501V6.27046H12.4501V5.97046ZM12.4501 5.42047H12.7501H12.4501ZM13.5501 5.97046V6.27046H13.8501V5.97046H13.5501ZM13.5501 5.42047H13.8501H13.5501ZM13.5501 1.78368L13.7023 1.52514L13.2501 1.25896V1.78368L13.5501 1.78368ZM15.7435 3.07489L15.5913 3.33342L15.7435 3.07489ZM16.2175 3.3539L16.0653 3.61243L16.3239 3.76462L16.476 3.50609L16.2175 3.3539ZM16.7755 2.40595L17.0341 2.55814L17.1863 2.2996L16.9277 2.14742L16.7755 2.40595ZM16.3016 2.12694L16.1494 2.38547L16.1494 2.38547L16.3016 2.12694ZM13.7364 0.616918L13.8886 0.358386V0.358386L13.7364 0.616918ZM12.2637 0.616919L12.1116 0.358387V0.358387L12.2637 0.616919ZM9.69857 2.12694L9.85076 2.38547L9.69857 2.12694ZM9.2246 2.40595L9.07241 2.14742L8.81388 2.29961L8.96606 2.55814L9.2246 2.40595ZM9.78262 3.3539L9.52409 3.50609L9.67628 3.76462L9.93481 3.61243L9.78262 3.3539ZM10.2566 3.07489L10.4088 3.33342L10.4088 3.33342L10.2566 3.07489ZM12.4501 1.78368L12.7501 1.78368V1.25896L12.2979 1.52514L12.4501 1.78368ZM16.7163 12.386L16.874 12.6413L16.7163 12.386ZM17.1842 12.097L17.3419 12.3522L17.5971 12.1945L17.4395 11.9393L17.1842 12.097ZM13.4948 14.3761L13.3371 14.1208L13.1948 14.2088V14.3761H13.4948ZM13.4948 17.2878H13.7948H13.4948ZM13.4948 17.8378V18.1378H13.7948V17.8378H13.4948ZM12.3948 17.8378H12.0948V18.1378H12.3948V17.8378ZM12.3948 17.2878H12.6948H12.3948ZM12.3948 14.2538H12.6948V14.0809L12.5452 13.9942L12.3948 14.2538ZM9.18659 12.3939L9.03613 12.6535H9.03613L9.18659 12.3939ZM8.71077 12.1181L8.45122 11.9676L8.30077 12.2272L8.56031 12.3776L8.71077 12.1181ZM9.26245 11.1664L9.41291 10.9069L9.15337 10.7564L9.00291 11.016L9.26245 11.1664ZM9.73828 11.4423L9.58782 11.7018L9.73828 11.4423ZM13.0464 13.3601L12.896 13.6196L13.0513 13.7097L13.2041 13.6153L13.0464 13.3601ZM16.1382 11.4502L16.2959 11.7054L16.1382 11.4502ZM16.6061 11.1611L16.8614 11.0035L16.7037 10.7482L16.4485 10.9059L16.6061 11.1611ZM13.5842 27.1246C13.4066 27.2292 13.2054 27.2845 13.0001 27.2845V27.8845C13.3137 27.8845 13.6198 27.7999 13.8886 27.6417L13.5842 27.1246ZM16.1494 25.6146L13.5842 27.1246L13.8886 27.6417L16.4537 26.1317L16.1494 25.6146ZM16.6233 25.3356L16.1494 25.6146L16.4537 26.1317L16.9277 25.8527L16.6233 25.3356ZM15.959 24.7984L16.517 25.7463L17.0341 25.4419L16.476 24.494L15.959 24.7984ZM15.8957 25.1837L16.3697 24.9047L16.0653 24.3876L15.5913 24.6667L15.8957 25.1837ZM13.7023 26.4749L15.8957 25.1837L15.5913 24.6667L13.3979 25.9579L13.7023 26.4749ZM13.2501 22.5796L13.2501 26.2164H13.8501L13.8501 22.5796H13.2501ZM13.2501 22.0296V22.5796H13.8501V22.0296H13.2501ZM12.4501 22.3296H13.5501V21.7296H12.4501V22.3296ZM12.7501 22.5796V22.0296H12.1501V22.5796H12.7501ZM12.7501 26.2164L12.7501 22.5796H12.1501L12.1501 26.2164H12.7501ZM10.1044 25.1837L12.2979 26.4749L12.6023 25.9579L10.4088 24.6667L10.1044 25.1837ZM9.63043 24.9047L10.1044 25.1837L10.4088 24.6667L9.93481 24.3876L9.63043 24.9047ZM9.48313 25.7463L10.0412 24.7984L9.52409 24.494L8.96607 25.4419L9.48313 25.7463ZM9.85076 25.6146L9.37679 25.3356L9.07241 25.8527L9.54639 26.1317L9.85076 25.6146ZM12.4159 27.1246L9.85076 25.6146L9.54639 26.1317L12.1116 27.6417L12.4159 27.1246ZM13.0001 27.2845C12.7947 27.2845 12.5935 27.2292 12.4159 27.1246L12.1116 27.6417C12.3803 27.7999 12.6864 27.8845 13.0001 27.8845V27.2845ZM20.5521 22.4427L21.0261 22.1637L20.7217 21.6466L20.2477 21.9256L20.5521 22.4427ZM21.2165 22.9799L20.6584 22.032L20.1414 22.3363L20.6994 23.2843L21.2165 22.9799ZM21.2797 22.5946L20.8057 22.8736L21.1101 23.3906L21.5841 23.1116L21.2797 22.5946ZM23.8449 21.0845L21.2797 22.5946L21.5841 23.1116L24.1493 21.6016L23.8449 21.0845ZM24.2842 20.6331C24.1795 20.8204 24.0283 20.9766 23.8449 21.0845L24.1493 21.6016C24.4266 21.4383 24.6526 21.2037 24.8079 20.9258L24.2842 20.6331ZM24.4435 20.0183C24.4435 20.2337 24.3888 20.4459 24.2842 20.6331L24.8079 20.9258C24.9632 20.648 25.0435 20.335 25.0435 20.0183H24.4435ZM24.4435 17.0092V20.0183H25.0435V17.0092H24.4435ZM24.4435 16.4592V17.0092H25.0435V16.4592H24.4435ZM23.6435 16.7592H24.7435V16.1592H23.6435V16.7592ZM23.9435 17.0092V16.4592H23.3435V17.0092H23.9435ZM23.9435 19.6215V17.0092H23.3435V19.6215H23.9435ZM20.4668 18.0878L23.4906 19.8796L23.7965 19.3634L20.7727 17.5716L20.4668 18.0878ZM19.9937 17.8074L20.4668 18.0878L20.7727 17.5716L20.2996 17.2912L19.9937 17.8074ZM19.8439 18.6485L20.4047 17.7022L19.8885 17.3963L19.3278 18.3427L19.8439 18.6485ZM20.2119 18.5179L19.7388 18.2375L19.4329 18.7537L19.9061 19.0341L20.2119 18.5179ZM23.2671 20.3283L20.2119 18.5179L19.9061 19.0341L22.9612 20.8445L23.2671 20.3283ZM21.0261 22.1637L23.2663 20.8449L22.9619 20.3279L20.7217 21.6466L21.0261 22.1637ZM5.1944 22.8736L4.72042 22.5946L4.41605 23.1116L4.89002 23.3906L5.1944 22.8736ZM5.3417 22.032L4.78368 22.9799L5.30074 23.2843L5.85876 22.3363L5.3417 22.032ZM4.97407 22.1637L5.44804 22.4427L5.75242 21.9256L5.27844 21.6466L4.97407 22.1637ZM2.73382 20.8449L4.97407 22.1637L5.27844 21.6466L3.03819 20.3279L2.73382 20.8449ZM5.78819 18.5179L2.73307 20.3283L3.03895 20.8445L6.09406 19.0341L5.78819 18.5179ZM6.26135 18.2375L5.78819 18.5179L6.09406 19.0341L6.56723 18.7537L6.26135 18.2375ZM5.59542 17.7022L6.1562 18.6485L6.67238 18.3427L6.1116 17.3963L5.59542 17.7022ZM5.53329 18.0878L6.00645 17.8074L5.70057 17.2912L5.22741 17.5716L5.53329 18.0878ZM2.50953 19.8796L5.53329 18.0878L5.22741 17.5716L2.20365 19.3634L2.50953 19.8796ZM2.05659 17.0092L2.05659 19.6215H2.65659L2.65659 17.0092H2.05659ZM2.05659 16.4592V17.0092H2.65659V16.4592H2.05659ZM1.25659 16.7592H2.35659V16.1592H1.25659V16.7592ZM1.55659 17.0092V16.4592H0.956592V17.0092H1.55659ZM1.55659 20.0183V17.0092H0.956592V20.0183H1.55659ZM1.71596 20.6331C1.61133 20.4459 1.55659 20.2337 1.55659 20.0183H0.956592C0.956592 20.335 1.03699 20.648 1.1922 20.9258L1.71596 20.6331ZM2.15525 21.0846C1.97186 20.9766 1.82063 20.8204 1.71596 20.6331L1.1922 20.9258C1.34752 21.2037 1.57351 21.4383 1.85087 21.6016L2.15525 21.0846ZM4.72042 22.5946L2.15525 21.0846L1.85087 21.6016L4.41604 23.1116L4.72042 22.5946ZM23.9435 11.5409V10.9909H23.3435V11.5409H23.9435ZM24.7435 11.2409H23.6435V11.8409H24.7435V11.2409ZM24.4435 10.9909V11.5409H25.0435V10.9909H24.4435ZM24.4435 7.98178L24.4435 10.9909H25.0435L25.0435 7.98178H24.4435ZM24.2842 7.367C24.3888 7.55422 24.4435 7.76637 24.4435 7.98178H25.0435C25.0435 7.66511 24.9632 7.35203 24.8079 7.07429L24.2842 7.367ZM23.8449 6.91552C24.0283 7.02348 24.1795 7.1797 24.2842 7.367L24.8079 7.07429C24.6526 6.79635 24.4266 6.56173 24.1493 6.39846L23.8449 6.91552ZM21.2797 5.40551L23.8449 6.91552L24.1493 6.39846L21.5841 4.88844L21.2797 5.40551ZM20.8057 5.12649L21.2797 5.40551L21.5841 4.88844L21.1101 4.60943L20.8057 5.12649ZM20.6584 5.9681L21.2165 5.02015L20.6994 4.71578L20.1414 5.66373L20.6584 5.9681ZM21.0261 5.83639L20.5521 5.55738L20.2477 6.07445L20.7217 6.35346L21.0261 5.83639ZM23.2663 7.15514L21.0261 5.83639L20.7217 6.35346L22.9619 7.67221L23.2663 7.15514ZM20.2119 9.48217L23.2671 7.67176L22.9612 7.15559L19.9061 8.96599L20.2119 9.48217ZM19.7388 9.76256L20.2119 9.48217L19.9061 8.96599L19.4329 9.24638L19.7388 9.76256ZM20.4047 10.2979L19.8439 9.35153L19.3278 9.65741L19.8885 10.6037L20.4047 10.2979ZM20.4668 9.91232L19.9937 10.1927L20.2996 10.7089L20.7727 10.4285L20.4668 9.91232ZM23.4906 8.1205L20.4668 9.91232L20.7727 10.4285L23.7965 8.63667L23.4906 8.1205ZM23.9435 10.9909V8.37858H23.3435V10.9909H23.9435ZM1.55659 11.5409V10.9909H0.956592V11.5409H1.55659ZM2.35659 11.2409H1.25659V11.8409H2.35659V11.2409ZM2.05659 10.9909V11.5409H2.65659V10.9909H2.05659ZM2.05659 8.37858L2.05659 10.9909H2.65659L2.65659 8.37858H2.05659ZM5.53329 9.91232L2.50953 8.1205L2.20365 8.63667L5.22741 10.4285L5.53329 9.91232ZM6.00645 10.1927L5.53329 9.91232L5.22741 10.4285L5.70057 10.7089L6.00645 10.1927ZM6.1562 9.35153L5.59542 10.2979L6.1116 10.6037L6.67237 9.65741L6.1562 9.35153ZM5.78819 9.48217L6.26135 9.76256L6.56722 9.24638L6.09406 8.96599L5.78819 9.48217ZM2.73307 7.67176L5.78819 9.48217L6.09406 8.96599L3.03894 7.15559L2.73307 7.67176ZM4.97407 5.83639L2.73382 7.15514L3.03819 7.67221L5.27844 6.35346L4.97407 5.83639ZM5.44804 5.55738L4.97407 5.83639L5.27844 6.35346L5.75242 6.07445L5.44804 5.55738ZM4.78368 5.02015L5.3417 5.9681L5.85876 5.66373L5.30074 4.71578L4.78368 5.02015ZM4.72042 5.40551L5.1944 5.1265L4.89002 4.60943L4.41604 4.88844L4.72042 5.40551ZM2.15525 6.91552L4.72042 5.40551L4.41604 4.88844L1.85087 6.39846L2.15525 6.91552ZM1.71596 7.367C1.82063 7.1797 1.97186 7.02348 2.15525 6.91552L1.85087 6.39846C1.57351 6.56173 1.34752 6.79636 1.1922 7.0743L1.71596 7.367ZM1.55659 7.98178C1.55659 7.76637 1.61133 7.55422 1.71596 7.367L1.1922 7.0743C1.03698 7.35203 0.956592 7.66511 0.956592 7.98178H1.55659ZM1.55659 10.9909V7.98178H0.956592V10.9909H1.55659ZM12.7501 5.97046V5.42047H12.1501V5.97046H12.7501ZM13.5501 5.67046H12.4501V6.27046H13.5501V5.67046ZM13.2501 5.42047V5.97046H13.8501V5.42047H13.2501ZM13.2501 1.78368L13.2501 5.42047H13.8501L13.8501 1.78368L13.2501 1.78368ZM15.8957 2.81636L13.7023 1.52514L13.3979 2.04221L15.5913 3.33342L15.8957 2.81636ZM16.3697 3.09537L15.8957 2.81636L15.5913 3.33342L16.0653 3.61243L16.3697 3.09537ZM16.517 2.25376L15.959 3.20171L16.476 3.50609L17.0341 2.55814L16.517 2.25376ZM16.1494 2.38547L16.6233 2.66448L16.9277 2.14742L16.4537 1.86841L16.1494 2.38547ZM13.5842 0.875451L16.1494 2.38547L16.4537 1.86841L13.8886 0.358386L13.5842 0.875451ZM13.0001 0.715527C13.2054 0.715527 13.4066 0.770904 13.5842 0.875451L13.8886 0.358386C13.6199 0.200199 13.3137 0.115527 13.0001 0.115527V0.715527ZM12.4159 0.875451C12.5935 0.770904 12.7947 0.715527 13.0001 0.715527V0.115527C12.6864 0.115527 12.3803 0.200199 12.1116 0.358387L12.4159 0.875451ZM9.85076 2.38547L12.4159 0.875451L12.1116 0.358387L9.54638 1.86841L9.85076 2.38547ZM9.37678 2.66448L9.85076 2.38547L9.54638 1.86841L9.07241 2.14742L9.37678 2.66448ZM10.0412 3.20171L9.48313 2.25376L8.96606 2.55814L9.52409 3.50609L10.0412 3.20171ZM10.1044 2.81636L9.63043 3.09537L9.93481 3.61243L10.4088 3.33342L10.1044 2.81636ZM12.2979 1.52514L10.1044 2.81636L10.4088 3.33342L12.6023 2.04221L12.2979 1.52514ZM12.7501 5.42047L12.7501 1.78368L12.1501 1.78368L12.1501 5.42047H12.7501ZM16.874 12.6413L17.3419 12.3522L17.0266 11.8417L16.5586 12.1308L16.874 12.6413ZM13.6525 14.6313L16.874 12.6413L16.5586 12.1308L13.3371 14.1208L13.6525 14.6313ZM13.7948 17.2878L13.7948 14.3761H13.1948L13.1948 17.2878H13.7948ZM13.7948 17.8378V17.2878H13.1948V17.8378H13.7948ZM12.3948 18.1378H13.4948V17.5378H12.3948V18.1378ZM12.0948 17.2878V17.8378H12.6948V17.2878H12.0948ZM12.0948 14.2538L12.0948 17.2878H12.6948L12.6948 14.2538H12.0948ZM9.03613 12.6535L12.2443 14.5133L12.5452 13.9942L9.33705 12.1344L9.03613 12.6535ZM8.56031 12.3776L9.03613 12.6535L9.33705 12.1344L8.86123 11.8585L8.56031 12.3776ZM9.00291 11.016L8.45122 11.9676L8.97031 12.2685L9.52199 11.3169L9.00291 11.016ZM9.88874 11.1827L9.41291 10.9069L9.11199 11.426L9.58782 11.7018L9.88874 11.1827ZM13.1969 13.1005L9.88874 11.1827L9.58782 11.7018L12.896 13.6196L13.1969 13.1005ZM15.9806 11.195L12.8888 13.1048L13.2041 13.6153L16.2959 11.7054L15.9806 11.195ZM16.4485 10.9059L15.9806 11.195L16.2959 11.7054L16.7638 11.4164L16.4485 10.9059ZM17.4395 11.9393L16.8614 11.0035L16.3509 11.3188L16.929 12.2546L17.4395 11.9393Z" fill="url(#paint1_linear_24_262)"/>
<defs>
<linearGradient id="paint0_linear_24_262" x1="13.0001" y1="0.415527" x2="13.0001" y2="27.5845" gradientUnits="userSpaceOnUse">
<stop stop-color="#EF4B6D"/>
<stop offset="1" stop-color="#654F97"/>
</linearGradient>
<linearGradient id="paint1_linear_24_262" x1="13.0001" y1="0.415527" x2="13.0001" y2="27.5845" gradientUnits="userSpaceOnUse">
<stop stop-color="#EF4B6D"/>
<stop offset="1" stop-color="#654F97"/>
</linearGradient>
</defs>
</svg>
