<svg width="32" height="33" viewBox="0 0 32 33" fill="none" xmlns="http://www.w3.org/2000/svg">
<rect x="0.65" y="1.15" width="30.7" height="30.7" rx="3.35" fill="white" stroke="#707070" stroke-width="1.3"/>
<path d="M27.3088 6.10046C27.3088 5.74148 27.0178 5.45046 26.6588 5.45046L20.8088 5.45046C20.4498 5.45046 20.1588 5.74148 20.1588 6.10046C20.1588 6.45945 20.4498 6.75046 20.8088 6.75046L26.0088 6.75046L26.0088 11.9505C26.0088 12.3094 26.2998 12.6005 26.6588 12.6005C27.0178 12.6005 27.3088 12.3094 27.3088 11.9505L27.3088 6.10046ZM20.4596 13.2189L27.1184 6.56008L26.1992 5.64084L19.5404 12.2997L20.4596 13.2189Z" fill="#707070"/>
<path d="M4.94973 27.1588C4.94973 27.5178 5.24074 27.8088 5.59973 27.8088L11.4497 27.8088C11.8087 27.8088 12.0997 27.5178 12.0997 27.1588C12.0997 26.7998 11.8087 26.5088 11.4497 26.5088L6.24973 26.5088L6.24973 21.3088C6.24973 20.9498 5.95871 20.6588 5.59973 20.6588C5.24074 20.6588 4.94973 20.9498 4.94973 21.3088L4.94973 27.1588ZM11.7989 20.0404L5.14011 26.6992L6.05935 27.6184L12.7182 20.9596L11.7989 20.0404Z" fill="#707070"/>
</svg>
