<svg width="32" height="32" viewBox="0 0 32 32" fill="none" xmlns="http://www.w3.org/2000/svg">
<path d="M14.1054 27.4286C14.1215 27.3993 14.1351 27.3687 14.146 27.3371C14.1577 27.3074 14.167 27.2769 14.174 27.2457C14.174 27.2152 14.1917 27.1822 14.1968 27.1492C14.2019 27.1162 14.1968 27.0857 14.1968 27.0527C14.1968 27.0197 14.1968 26.9867 14.1968 26.9537C14.1968 26.9206 14.1968 26.8927 14.1968 26.8597C14.1968 26.8267 14.1968 26.7886 14.179 26.753C14.1613 26.7175 14.179 26.7276 14.179 26.7175L13.3892 23.873H27.4184C27.6878 23.873 27.9462 23.766 28.1367 23.5755C28.3273 23.385 28.4343 23.1266 28.4343 22.8571V12.6984C28.4343 12.429 28.3273 12.1706 28.1367 11.9801C27.9462 11.7896 27.6878 11.6825 27.4184 11.6825C27.149 11.6825 26.8906 11.7896 26.7001 11.9801C26.5096 12.1706 26.4025 12.429 26.4025 12.6984V21.8413H12.0229H11.9187L11.8171 21.8591H11.7841L11.7283 21.8819L11.6267 21.9225C11.5678 21.9502 11.5117 21.9834 11.459 22.0216L11.3803 22.0851L11.3117 22.1511C11.2886 22.1748 11.2674 22.2003 11.2483 22.2273C11.2305 22.2527 11.2102 22.2781 11.1924 22.306L11.1467 22.3898L11.106 22.4813C11.106 22.5117 11.0857 22.5448 11.0781 22.5752C11.0705 22.6057 11.0603 22.6387 11.0552 22.6692C11.0502 22.6997 11.0552 22.7429 11.0552 22.7784C11.0552 22.814 11.0552 22.819 11.0552 22.8394C11.0552 22.8597 11.0552 22.8597 11.0552 22.8698C11.0527 22.9054 11.0527 22.941 11.0552 22.9765C11.0552 23.0095 11.0552 23.0451 11.073 23.0781C11.0908 23.1111 11.073 23.0984 11.073 23.1086L12.0559 26.6641L9.35873 29.3943C9.28281 29.3704 9.20235 29.3647 9.12382 29.3776C9.0453 29.3906 8.97091 29.4218 8.90665 29.4687C8.8424 29.5157 8.79008 29.5771 8.75391 29.648C8.71774 29.7189 8.69873 29.7972 8.69841 29.8768V29.9683H2.02159V23.2914H2.11302C2.1926 23.2911 2.27099 23.2721 2.34188 23.2359C2.41277 23.1998 2.47416 23.1474 2.52112 23.0832C2.56807 23.0189 2.59928 22.9445 2.6122 22.866C2.62513 22.7875 2.61943 22.707 2.59556 22.6311L5.29524 19.9314L8.85079 20.9143H8.89143H8.93968C8.99894 20.9272 9.05936 20.934 9.12 20.9346C9.18318 20.9343 9.24615 20.9274 9.30794 20.9143L9.36635 20.899C9.40606 20.8899 9.44509 20.878 9.48318 20.8635L9.54667 20.8356C9.58267 20.8195 9.61747 20.8008 9.65079 20.7797L9.70667 20.7441C9.74222 20.7187 9.77778 20.6883 9.81333 20.6578L9.84381 20.6298C9.88682 20.5859 9.92591 20.5383 9.96064 20.4876V20.4648C9.98915 20.4213 10.0138 20.3754 10.0343 20.3276C10.0434 20.307 10.0511 20.2858 10.0571 20.2641C10.0571 20.2387 10.08 20.2133 10.0876 20.1879C10.0952 20.1625 10.0876 20.1651 10.0876 20.1549C10.0876 20.1448 10.0876 20.0889 10.1054 20.0559C10.1232 20.0229 10.1054 19.9822 10.1054 19.9467C10.1054 19.9111 10.1054 19.9289 10.1054 19.9162V5.5873H19.2914C19.5609 5.5873 19.8192 5.48027 20.0098 5.28976C20.2003 5.09925 20.3073 4.84086 20.3073 4.57143C20.3073 4.302 20.2003 4.04361 20.0098 3.8531C19.8192 3.66259 19.5609 3.55556 19.2914 3.55556H9.1327C8.86327 3.55556 8.60488 3.66259 8.41437 3.8531C8.22386 4.04361 8.11683 4.302 8.11683 4.57143V18.6006L5.26476 17.8133H5.22921L5.12254 17.7956H5.02857H4.92952H4.83048L4.73651 17.8184C4.70537 17.8254 4.6748 17.8347 4.64508 17.8464C4.61351 17.8573 4.58292 17.8709 4.55365 17.887C4.52359 17.8997 4.4947 17.915 4.4673 17.9327C4.43953 17.9481 4.41318 17.966 4.38857 17.986C4.35941 18.0074 4.33143 18.0302 4.30476 18.0546L4.27683 18.0775L0.286984 22.0648V22.0775C0.24397 22.1214 0.204879 22.169 0.170159 22.2197C0.152381 22.2451 0.142222 22.2756 0.126984 22.301C0.108397 22.3309 0.0922597 22.3624 0.0787302 22.3949C0.0650599 22.4296 0.0540234 22.4653 0.0457143 22.5016C0.034989 22.5279 0.0264936 22.5551 0.0203175 22.5829C0.00726899 22.649 0.000466543 22.7161 0 22.7835V30.9841C0 31.2536 0.107029 31.5119 0.297542 31.7025C0.488055 31.893 0.746447 32 1.01587 32H9.20635C9.27289 31.9997 9.33924 31.9929 9.40444 31.9797C9.43365 31.9727 9.46248 31.9643 9.49079 31.9543C9.5263 31.946 9.56111 31.9349 9.59492 31.9213C9.62794 31.9213 9.65841 31.8883 9.69143 31.873L9.77016 31.8298C9.82511 31.7917 9.87692 31.7493 9.92508 31.7029L13.9149 27.713L13.9378 27.6851C13.9621 27.6584 13.985 27.6304 14.0063 27.6013C14.0264 27.5767 14.0443 27.5503 14.0597 27.5225C14.0778 27.4927 14.0931 27.4613 14.1054 27.4286Z" fill="url(#paint0_linear_18_27)"/>
<path d="M3.30674 28.6832C3.40156 28.7786 3.53034 28.8324 3.66484 28.833C3.73186 28.8331 3.79823 28.8199 3.86013 28.7941C3.92202 28.7684 3.97822 28.7307 4.02547 28.6832L5.82865 26.88L8.99817 27.4921C9.03108 27.4958 9.06431 27.4958 9.09722 27.4921C9.23193 27.5045 9.36608 27.463 9.47014 27.3765C9.57421 27.2901 9.63968 27.1658 9.65214 27.0311C9.6646 26.8964 9.62303 26.7623 9.53659 26.6582C9.45014 26.5541 9.3259 26.4887 9.19118 26.4762L6.08515 25.9048L5.48579 22.8064C5.47665 22.7377 5.45359 22.6717 5.418 22.6123C5.38242 22.5529 5.33507 22.5014 5.27886 22.461C5.22266 22.4206 5.15878 22.3921 5.09115 22.3772C5.02353 22.3624 4.95358 22.3615 4.88561 22.3747C4.81765 22.3879 4.75309 22.4148 4.69591 22.4539C4.63873 22.4929 4.59013 22.5432 4.5531 22.6017C4.51608 22.6602 4.4914 22.7257 4.48059 22.794C4.46977 22.8624 4.47306 22.9323 4.49023 22.9994L5.10992 26.1587L3.30674 27.9619C3.25913 28.0091 3.22135 28.0653 3.19556 28.1272C3.16977 28.1891 3.15649 28.2555 3.15649 28.3225C3.15649 28.3896 3.16977 28.456 3.19556 28.5179C3.22135 28.5798 3.25913 28.636 3.30674 28.6832Z" fill="url(#paint1_linear_18_27)"/>
<path d="M23.3677 5.5873H25.6839L12.8915 18.3797C12.7962 18.475 12.7427 18.6043 12.7427 18.7391C12.7427 18.8738 12.7962 19.0031 12.8915 19.0984C12.9868 19.1937 13.1161 19.2473 13.2509 19.2473C13.3857 19.2473 13.515 19.1937 13.6103 19.0984L26.4026 6.30603V8.63492C26.4026 8.90435 26.5097 9.16274 26.7002 9.35325C26.8907 9.54377 27.1491 9.6508 27.4185 9.6508C27.6879 9.6508 27.9463 9.54377 28.1368 9.35325C28.3274 9.16274 28.4344 8.90435 28.4344 8.63492V4.57143C28.4344 4.302 28.3274 4.04361 28.1368 3.8531C27.9463 3.66259 27.6879 3.55556 27.4185 3.55556H23.355C23.0856 3.55556 22.8272 3.66259 22.6367 3.8531C22.4462 4.04361 22.3391 4.302 22.3391 4.57143C22.3391 4.84086 22.4462 5.09925 22.6367 5.28976C22.8272 5.48027 23.0856 5.5873 23.355 5.5873H23.3677Z" fill="url(#paint2_linear_18_27)"/>
<path d="M31.482 0H23.3829C23.2482 0 23.119 0.0535146 23.0238 0.148771C22.9285 0.244028 22.875 0.373223 22.875 0.507937C22.875 0.64265 22.9285 0.771845 23.0238 0.867102C23.119 0.962359 23.2482 1.01587 23.3829 1.01587H30.974V8.60698C30.974 8.7417 31.0276 8.87089 31.1228 8.96615C31.2181 9.06141 31.3473 9.11492 31.482 9.11492C31.6167 9.11492 31.7459 9.06141 31.8412 8.96615C31.9364 8.87089 31.9899 8.7417 31.9899 8.60698V0.507937C31.9899 0.373223 31.9364 0.244028 31.8412 0.148771C31.7459 0.0535146 31.6167 0 31.482 0V0Z" fill="url(#paint3_linear_18_27)"/>
<path d="M1.05908 9.11492C1.1938 9.11492 1.32299 9.06141 1.41825 8.96615C1.51351 8.87089 1.56702 8.7417 1.56702 8.60698V1.01587H9.16067C9.29538 1.01587 9.42458 0.962359 9.51984 0.867102C9.61509 0.771845 9.66861 0.64265 9.66861 0.507937C9.66861 0.373223 9.61509 0.244028 9.51984 0.148771C9.42458 0.0535146 9.29538 0 9.16067 0L1.05908 0C0.924371 0 0.795175 0.0535146 0.699919 0.148771C0.604662 0.244028 0.551147 0.373223 0.551147 0.507937V8.60698C0.551147 8.7417 0.604662 8.87089 0.699919 8.96615C0.795175 9.06141 0.924371 9.11492 1.05908 9.11492Z" fill="url(#paint4_linear_18_27)"/>
<path d="M31.482 22.3213C31.3473 22.3213 31.2181 22.3748 31.1228 22.47C31.0276 22.5653 30.974 22.6945 30.974 22.8292V30.4229H23.3829C23.2482 30.4229 23.119 30.4764 23.0238 30.5716C22.9285 30.6669 22.875 30.7961 22.875 30.9308C22.875 31.0655 22.9285 31.1947 23.0238 31.29C23.119 31.3852 23.2482 31.4387 23.3829 31.4387H31.482C31.6167 31.4387 31.7459 31.3852 31.8412 31.29C31.9364 31.1947 31.9899 31.0655 31.9899 30.9308V22.8292C31.9899 22.6945 31.9364 22.5653 31.8412 22.47C31.7459 22.3748 31.6167 22.3213 31.482 22.3213Z" fill="url(#paint5_linear_18_27)"/>
<defs>
<linearGradient id="paint0_linear_18_27" x1="14.2171" y1="3.55556" x2="14.2171" y2="32" gradientUnits="userSpaceOnUse">
<stop stop-color="#B64C70"/>
<stop offset="1" stop-color="#5B0DAF"/>
</linearGradient>
<linearGradient id="paint1_linear_18_27" x1="6.4054" y1="22.3654" x2="6.4054" y2="28.833" gradientUnits="userSpaceOnUse">
<stop stop-color="#B64C70"/>
<stop offset="1" stop-color="#5B0DAF"/>
</linearGradient>
<linearGradient id="paint2_linear_18_27" x1="20.5885" y1="3.55556" x2="20.5885" y2="19.2473" gradientUnits="userSpaceOnUse">
<stop stop-color="#B64C70"/>
<stop offset="1" stop-color="#5B0DAF"/>
</linearGradient>
<linearGradient id="paint3_linear_18_27" x1="27.4325" y1="0" x2="27.4325" y2="9.11492" gradientUnits="userSpaceOnUse">
<stop stop-color="#B64C70"/>
<stop offset="1" stop-color="#5B0DAF"/>
</linearGradient>
<linearGradient id="paint4_linear_18_27" x1="5.10988" y1="0" x2="5.10988" y2="9.11492" gradientUnits="userSpaceOnUse">
<stop stop-color="#B64C70"/>
<stop offset="1" stop-color="#5B0DAF"/>
</linearGradient>
<linearGradient id="paint5_linear_18_27" x1="27.4325" y1="22.3213" x2="27.4325" y2="31.4387" gradientUnits="userSpaceOnUse">
<stop stop-color="#B64C70"/>
<stop offset="1" stop-color="#5B0DAF"/>
</linearGradient>
</defs>
</svg>
