<svg width="33" height="32" viewBox="0 0 33 32" fill="none" xmlns="http://www.w3.org/2000/svg">
<path d="M32.8874 16.2325C32.8874 16.2025 32.9149 16.1725 32.9249 16.1425C32.9367 16.1125 32.9459 16.0816 32.9524 16.05C32.9524 16.02 32.9699 15.99 32.9749 15.96C32.9799 15.93 32.9749 15.8925 32.9749 15.86C32.9749 15.8275 32.9749 15.7975 32.9749 15.765C32.9749 15.7325 32.9749 15.7025 32.9749 15.6725C32.9749 15.6425 32.9749 15.6025 32.9574 15.5675C32.9399 15.5325 32.9574 15.5425 32.9574 15.5325L29.7574 3.9325C29.7115 3.7651 29.6228 3.61254 29.5001 3.4898C29.3773 3.36707 29.2248 3.27839 29.0574 3.2325L17.4549 0.0325H17.4199L17.3149 0H17.2199H17.1299H17.0274L16.9399 0.0325L16.8424 0.0625C16.8138 0.072477 16.7862 0.0850285 16.7599 0.1L16.6674 0.1475C16.643 0.162731 16.6197 0.179429 16.5974 0.1975C16.5665 0.219542 16.5373 0.243771 16.5099 0.27L16.4899 0.29L9.28237 7.5C9.23669 7.54741 9.19489 7.5984 9.15737 7.6525C9.14237 7.6775 9.12987 7.705 9.11737 7.73C9.09825 7.76031 9.08153 7.79208 9.06737 7.825C9.05392 7.85828 9.04306 7.89255 9.03487 7.9275C9.02505 7.95538 9.01671 7.98375 9.00987 8.0125C8.99683 8.07669 8.99013 8.142 8.98987 8.2075V23C8.98987 23.2652 9.09523 23.5196 9.28276 23.7071C9.4703 23.8946 9.72465 24 9.98987 24H24.7899C24.8554 23.9997 24.9207 23.993 24.9849 23.98C25.0136 23.9732 25.042 23.9648 25.0699 23.955C25.1048 23.9468 25.1391 23.9359 25.1724 23.9225C25.2049 23.91 25.2349 23.89 25.2649 23.875L25.3449 23.8325C25.3992 23.7964 25.4495 23.7545 25.4949 23.7075L32.6974 16.5L32.7199 16.4725C32.7445 16.4459 32.767 16.4175 32.7874 16.3875C32.8065 16.3637 32.8241 16.3386 32.8399 16.3125C32.8574 16.29 32.8724 16.25 32.8874 16.2325ZM10.9899 8.6975H11.9899C12.1225 8.6975 12.2497 8.64482 12.3434 8.55105C12.4372 8.45728 12.4899 8.33011 12.4899 8.1975C12.4899 8.06489 12.4372 7.93771 12.3434 7.84395C12.2497 7.75018 12.1225 7.6975 11.9899 7.6975H11.9049L17.4899 2.115L27.4274 4.865L25.2399 7.0425C25.1874 7.08714 25.1447 7.14215 25.1145 7.20407C25.0842 7.266 25.0671 7.3335 25.0642 7.40235C25.0613 7.47119 25.0727 7.5399 25.0976 7.60414C25.1225 7.66839 25.1604 7.7268 25.209 7.77569C25.2575 7.82459 25.3157 7.86293 25.3797 7.88829C25.4438 7.91365 25.5124 7.9255 25.5813 7.92309C25.6502 7.92068 25.7178 7.90406 25.7799 7.87427C25.8421 7.84448 25.8974 7.80218 25.9424 7.75L28.1299 5.565L30.8799 15.5025L25.2899 21.0825V21C25.2899 20.8674 25.2372 20.7402 25.1434 20.6464C25.0497 20.5527 24.9225 20.5 24.7899 20.5C24.6573 20.5 24.5301 20.5527 24.4363 20.6464C24.3425 20.7402 24.2899 20.8674 24.2899 21V22H10.9899V8.6975Z" fill="url(#paint0_linear_18_26)"/>
<path d="M18.5549 15.1375L24.4899 16.2875C24.5214 16.2911 24.5533 16.2911 24.5849 16.2875C24.6505 16.2937 24.7168 16.287 24.7798 16.2676C24.8429 16.2483 24.9015 16.2167 24.9523 16.1746C25.0032 16.1326 25.0453 16.081 25.0761 16.0227C25.107 15.9645 25.1261 15.9007 25.1324 15.835C25.1386 15.7693 25.1319 15.7031 25.1125 15.64C25.0931 15.577 25.0615 15.5184 25.0195 15.4675C24.9775 15.4167 24.9259 15.3746 24.8676 15.3437C24.8093 15.3128 24.7455 15.2937 24.6799 15.2875L18.8174 14.17L17.6799 8.3025C17.6709 8.23494 17.6482 8.16994 17.6132 8.11148C17.5781 8.05302 17.5315 8.00233 17.4762 7.96254C17.4209 7.92275 17.358 7.89469 17.2914 7.88008C17.2248 7.86547 17.156 7.86463 17.0891 7.8776C17.0222 7.89057 16.9586 7.91709 16.9023 7.95551C16.8461 7.99394 16.7982 8.04346 16.7618 8.10105C16.7253 8.15864 16.701 8.22307 16.6904 8.29038C16.6797 8.3577 16.683 8.42648 16.6999 8.4925L17.8474 14.4325L14.4374 17.8425C14.3871 17.8879 14.3466 17.943 14.3183 18.0046C14.2899 18.0661 14.2744 18.1327 14.2726 18.2004C14.2708 18.2681 14.2828 18.3355 14.3079 18.3984C14.3329 18.4614 14.3705 18.5186 14.4183 18.5665C14.4661 18.6145 14.5231 18.6523 14.586 18.6775C14.6488 18.7028 14.7162 18.715 14.7839 18.7135C14.8516 18.7119 14.9183 18.6966 14.9799 18.6685C15.0415 18.6404 15.0968 18.6001 15.1424 18.55L18.5549 15.1375Z" fill="url(#paint1_linear_18_26)"/>
<path d="M31.3799 20.8575C31.1355 20.7544 30.8603 20.7526 30.6146 20.8525C30.3689 20.9523 30.173 21.1457 30.0699 21.39C29.1698 23.5153 27.7614 25.3871 25.9686 26.8407C24.1757 28.2943 22.0533 29.2854 19.7878 29.7267C17.5223 30.168 15.1831 30.0461 12.9757 29.3718C10.7683 28.6974 8.76034 27.4912 7.12827 25.8591C5.4962 24.227 4.28998 22.2191 3.61561 20.0117C2.94124 17.8043 2.81936 15.4651 3.26069 13.1996C3.70202 10.9341 4.69304 8.81165 6.14667 7.01881C7.6003 5.22597 9.47203 3.81761 11.5974 2.9175C11.8417 2.81407 12.0349 2.61781 12.1346 2.3719C12.2342 2.12599 12.2321 1.85058 12.1286 1.60625C12.0252 1.36192 11.8289 1.16869 11.583 1.06906C11.3371 0.969428 11.0617 0.971566 10.8174 1.075C7.90212 2.30609 5.41478 4.36975 3.6667 7.00764C1.91863 9.64554 0.987498 12.7405 0.989873 15.905C0.989873 15.93 0.989873 15.955 0.989873 15.98C0.989873 16.005 0.989873 16 0.989873 16V31C0.989873 31.2652 1.09523 31.5196 1.28277 31.7071C1.4703 31.8946 1.72466 32 1.98987 32H17.0824C20.246 31.9984 23.3392 31.0654 25.976 29.3173C28.6129 27.5692 30.6766 25.0834 31.9099 22.17C31.9614 22.049 31.9885 21.9191 31.9897 21.7876C31.991 21.6562 31.9663 21.5258 31.917 21.4038C31.8678 21.2819 31.795 21.1709 31.7029 21.0772C31.6107 20.9834 31.5009 20.9088 31.3799 20.8575ZM2.98987 23.6775C4.45912 26.3381 6.64985 28.5297 9.30987 30H2.98987V23.6775Z" fill="url(#paint2_linear_18_26)"/>
<defs>
<linearGradient id="paint0_linear_18_26" x1="20.9835" y1="0" x2="20.9835" y2="24" gradientUnits="userSpaceOnUse">
<stop stop-color="#B64C70"/>
<stop offset="1" stop-color="#5B0DAF"/>
</linearGradient>
<linearGradient id="paint1_linear_18_26" x1="19.7035" y1="7.86846" x2="19.7035" y2="18.7136" gradientUnits="userSpaceOnUse">
<stop stop-color="#B64C70"/>
<stop offset="1" stop-color="#5B0DAF"/>
</linearGradient>
<linearGradient id="paint2_linear_18_26" x1="16.4898" y1="0.99585" x2="16.4898" y2="32" gradientUnits="userSpaceOnUse">
<stop stop-color="#B64C70"/>
<stop offset="1" stop-color="#5B0DAF"/>
</linearGradient>
</defs>
</svg>
