<svg width="20" height="21" viewBox="0 0 20 21" fill="none" xmlns="http://www.w3.org/2000/svg">
<path d="M11.7764 2.53124L12.3209 1.99421C12.4371 1.8909 12.531 1.76492 12.5968 1.62401C12.6626 1.48309 12.6989 1.33022 12.7035 1.17477C12.7081 1.01932 12.6808 0.864576 12.6234 0.720037C12.566 0.575498 12.4797 0.444215 12.3697 0.334247C12.2598 0.22428 12.1285 0.13795 11.9839 0.0805565C11.8394 0.0231631 11.6847 -0.00408185 11.5292 0.000494163C11.3738 0.00507018 11.2209 0.0413706 11.08 0.107167C10.9391 0.172963 10.8131 0.266867 10.7098 0.383112L8.05446 3.03097C7.84309 3.24582 7.72464 3.53514 7.72464 3.83652C7.72464 4.13791 7.84309 4.42722 8.05446 4.64207L10.7098 7.28993C10.9232 7.50412 11.2129 7.62484 11.5153 7.62558C11.722 7.62637 11.925 7.57027 12.1019 7.4634C12.2789 7.35654 12.423 7.20304 12.5185 7.01971C12.614 6.83639 12.6572 6.63032 12.6434 6.42407C12.6296 6.21781 12.5593 6.01934 12.4402 5.85039C13.4502 6.27682 14.3324 6.95788 15.0006 7.82707C15.6688 8.69626 16.1002 9.72387 16.2526 10.8096C16.4051 11.8953 16.2734 13.0019 15.8704 14.0215C15.4674 15.0411 14.8069 15.9388 13.9533 16.6269C13.0998 17.315 12.0824 17.77 11.0006 17.9474C9.91867 18.1249 8.80925 18.0188 7.78062 17.6395C6.75199 17.2601 5.83931 16.6205 5.13169 15.7831C4.42407 14.9457 3.9457 13.9391 3.74329 12.8616C3.67202 12.521 3.4839 12.216 3.21147 11.9994C2.93905 11.7828 2.59948 11.6683 2.25153 11.6757C2.02703 11.6709 1.80434 11.7169 1.60007 11.8102C1.39581 11.9034 1.21524 12.0416 1.07183 12.2145C0.928429 12.3873 0.825886 12.5902 0.771854 12.8082C0.717822 13.0261 0.713695 13.2535 0.75978 13.4733C1.19239 15.6608 2.39353 17.6214 4.14598 19.0004C5.89843 20.3794 8.0865 21.0857 10.3145 20.9917C12.6312 20.8194 14.809 19.8211 16.4517 18.1784C18.0944 16.5357 19.0927 14.3579 19.265 12.0412C19.3494 9.82495 18.6422 7.65106 17.2701 5.90862C15.898 4.16617 13.9506 2.96894 11.7764 2.53124Z" fill="#52468F"/>
</svg>
