<svg width="355" height="99" viewBox="0 0 355 99" fill="none" xmlns="http://www.w3.org/2000/svg">
<g filter="url(#filter0_d_553_1068)">
<rect x="20" y="15" width="315" height="59" rx="29.5" fill="url(#paint0_linear_553_1068)" shape-rendering="crispEdges"/>
<path d="M96.0886 53.2807L96.2415 53.1908L95.7559 52.2916L95.666 52.1387L95.5131 52.2196L95.603 52.3815L95.5131 52.2196L95.0815 52.4624L93.7057 53.2447V50.2864H92.33V53.2807L90.9452 52.4984L90.5136 52.2556L90.3608 52.1747L90.2708 52.3275L89.7853 53.2267L89.9471 53.3167L89.7943 53.1908L89.7043 53.3436L89.8662 53.4335L90.2978 53.6763L92.312 54.8183C92.5237 54.9363 92.762 54.9982 93.0044 54.9981C93.2466 54.9971 93.4846 54.9352 93.6968 54.8183L95.7199 53.6763L96.1516 53.4335L96.0616 53.2807H96.0886Z" fill="url(#paint1_linear_553_1068)"/>
<path d="M89.9472 35.7194L89.7943 35.8003L90.2799 36.6995L90.3698 36.8524L90.5137 36.6995L90.4328 36.5467L90.5137 36.6995L90.9453 36.4567L92.3301 35.6834V38.7047H93.6789V35.7194L95.0546 36.4927L95.4862 36.7355L95.5761 36.5826L95.4862 36.7355L95.6391 36.8254L95.729 36.6995L96.2146 35.8003L96.0887 35.7194L96.1786 35.5665L95.747 35.3238L93.6968 34.1818C93.4847 34.0649 93.2467 34.003 93.0045 34.002C92.7621 34.0019 92.5238 34.0638 92.3121 34.1818L90.2889 35.3238L89.8573 35.5665L89.6954 35.6475L89.7943 35.8003L89.9472 35.7194Z" fill="url(#paint2_linear_553_1068)"/>
<path d="M96.1453 35.5666L96.0571 35.7234L96.2139 35.8115L96.302 35.6548L96.1453 35.5666Z" fill="url(#paint3_linear_553_1068)"/>
<path d="M102.311 39.2531C102.185 39.0371 102.005 38.8575 101.79 38.7316L99.7664 37.5986L99.3347 37.3558L99.1729 37.2659L99.083 37.4187L98.5974 38.3179L98.5165 38.4798L98.6693 38.5697L99.101 38.8125L100.459 39.5678L98.4535 40.6738L98.0309 40.9166L98.1118 41.0695L97.959 41.1594L98.4445 42.0586L98.5345 42.2114L98.6963 42.0945L98.6064 41.9417L98.6963 42.0945L99.1189 41.8517L101.151 40.7008V42.9038H102.5V39.9634C102.501 39.7141 102.436 39.4689 102.311 39.2531Z" fill="url(#paint4_linear_553_1068)"/>
<path d="M96.2143 53.1914L96.0575 53.2795L96.1456 53.4363L96.3024 53.3482L96.2143 53.1914Z" fill="url(#paint5_linear_553_1068)"/>
<path d="M98.0294 40.9131L97.8729 41.0017L97.9615 41.1582L98.118 41.0696L98.0294 40.9131Z" fill="url(#paint6_linear_553_1068)"/>
<path d="M87.4005 38.2888L87.2438 38.377L87.3319 38.5337L87.4887 38.4456L87.4005 38.2888Z" fill="url(#paint7_linear_553_1068)"/>
<path d="M87.5554 46.9772L87.4025 47.0671L87.3126 46.9142L86.881 47.157L84.8488 48.308V46.0959H83.5V49.0363C83.4987 49.2857 83.5639 49.5309 83.6888 49.7467C83.8161 49.9623 83.9994 50.1395 84.2194 50.2592L86.2426 51.4012L86.6742 51.644L86.827 51.7339L86.9169 51.572L86.7641 51.4911L86.9169 51.572L87.4025 50.6728L87.2496 50.5919L87.3306 50.4301L86.899 50.1873L85.5412 49.423L87.5464 48.3259L87.996 48.0832L87.9061 47.9303L87.996 48.0832L88.1488 47.9932L88.0589 47.8404L87.5554 46.9772Z" fill="url(#paint8_linear_553_1068)"/>
<path d="M96.0347 42.1575L95.9448 42.0046L95.7919 42.0946L95.8818 42.2564L95.7919 42.0946L95.3603 42.3463L93.0314 43.7221L90.5406 42.3373L90.109 42.0946L89.9472 42.0046L89.8573 42.1575L89.3807 43.0567L89.2908 43.2096L89.4526 43.2995L89.5425 43.1376L89.4526 43.2995L89.8842 43.5423L92.2851 44.8641V47.6695H93.6339V44.972L96.0887 43.5063L96.5203 43.2635L96.4304 43.1017L96.5203 43.2635L96.6731 43.1646L96.5383 42.9937L96.0347 42.1575Z" fill="url(#paint9_linear_553_1068)"/>
<path d="M87.5464 40.674L85.5412 39.532L86.899 38.7767L87.3306 38.4979L87.2496 38.3361L87.4025 38.2461L86.9169 37.347L86.827 37.1941L86.6742 37.284L86.2426 37.5987L84.2194 38.7317C84.0009 38.8574 83.8182 39.0369 83.6888 39.2532C83.5639 39.469 83.4987 39.7142 83.5 39.9636V42.904H84.8488V40.6919L86.881 41.8429L87.3126 42.0947L87.4025 41.9418L87.3126 42.0947L87.4655 42.1846L87.5554 42.0317L88.0409 41.1326L87.8881 41.0426L88.0409 41.1326L88.1309 40.9707L87.996 40.9167L87.5464 40.674Z" fill="url(#paint10_linear_553_1068)"/>
<path d="M101.331 46.0959H101.151V48.308L99.1189 47.157L98.6963 46.9142L98.6064 47.0671L98.6963 46.9142L98.5345 46.8243L98.4445 46.9772L97.959 47.8763L98.1118 47.9663L98.0309 48.1191L98.4535 48.3619L100.459 49.4949L99.101 50.1873L98.6693 50.4301L98.5165 50.52L98.5974 50.6728L98.7593 50.5919L98.5974 50.6728L99.083 51.572L99.2448 51.4911L99.083 51.572L99.1729 51.7339L99.3347 51.644L99.7664 51.4012L101.79 50.2592C102.007 50.1393 102.187 49.962 102.311 49.7467C102.436 49.5309 102.501 49.2857 102.5 49.0363V46.0959H101.331Z" fill="url(#paint11_linear_553_1068)"/>
<path d="M97.9682 47.8425L97.8795 47.999L98.036 48.0877L98.1246 47.9312L97.9682 47.8425Z" fill="url(#paint12_linear_553_1068)"/>
<path d="M87.4723 46.815L87.3158 46.9036L87.4044 47.0601L87.5609 46.9715L87.4723 46.815Z" fill="url(#paint13_linear_553_1068)"/>
<path d="M87.3316 50.4741L87.2434 50.6309L87.4002 50.719L87.4883 50.5623L87.3316 50.4741Z" fill="url(#paint14_linear_553_1068)"/>
<path d="M117.369 51V38.67H119.367V51H117.369ZM124.111 51H122.149V42H124.093V42.558C124.969 42.054 125.797 41.802 126.577 41.802C127.777 41.802 128.593 42.144 129.025 42.828C129.469 43.5 129.691 44.616 129.691 46.176V51H127.747V46.23C127.747 45.258 127.639 44.568 127.423 44.16C127.219 43.752 126.793 43.548 126.145 43.548C125.533 43.548 124.945 43.668 124.381 43.908L124.111 44.016V51ZM132.155 51V42H134.117V51H132.155ZM132.155 40.47V38.4H134.117V40.47H132.155ZM140.043 41.802C140.679 41.802 141.429 41.886 142.293 42.054L142.743 42.144L142.671 43.692C141.723 43.596 141.021 43.548 140.565 43.548C139.653 43.548 139.041 43.752 138.729 44.16C138.417 44.568 138.261 45.336 138.261 46.464C138.261 47.592 138.411 48.372 138.711 48.804C139.011 49.236 139.635 49.452 140.583 49.452L142.689 49.308L142.743 50.874C141.531 51.09 140.619 51.198 140.007 51.198C138.639 51.198 137.673 50.832 137.109 50.1C136.557 49.356 136.281 48.144 136.281 46.464C136.281 44.784 136.575 43.59 137.163 42.882C137.751 42.162 138.711 41.802 140.043 41.802ZM144.82 51V42H146.782V51H144.82ZM144.82 40.47V38.4H146.782V40.47H144.82ZM156.002 44.772V48.876C156.014 49.14 156.08 49.338 156.2 49.47C156.332 49.59 156.53 49.668 156.794 49.704L156.74 51.198C155.708 51.198 154.91 50.976 154.346 50.532C153.386 50.976 152.42 51.198 151.448 51.198C149.66 51.198 148.766 50.244 148.766 48.336C148.766 47.424 149.006 46.764 149.486 46.356C149.978 45.948 150.728 45.702 151.736 45.618L154.058 45.42V44.772C154.058 44.292 153.95 43.956 153.734 43.764C153.53 43.572 153.224 43.476 152.816 43.476C152.048 43.476 151.088 43.524 149.936 43.62L149.36 43.656L149.288 42.27C150.596 41.958 151.796 41.802 152.888 41.802C153.992 41.802 154.784 42.042 155.264 42.522C155.756 42.99 156.002 43.74 156.002 44.772ZM151.97 47.004C151.142 47.076 150.728 47.526 150.728 48.354C150.728 49.182 151.094 49.596 151.826 49.596C152.426 49.596 153.062 49.5 153.734 49.308L154.058 49.2V46.806L151.97 47.004ZM158.645 51V42H160.589V43.08C161.609 42.42 162.629 41.994 163.649 41.802V43.764C162.617 43.968 161.735 44.232 161.003 44.556L160.607 44.718V51H158.645ZM176.124 44.772V48.876C176.136 49.14 176.202 49.338 176.322 49.47C176.454 49.59 176.652 49.668 176.916 49.704L176.862 51.198C175.83 51.198 175.032 50.976 174.468 50.532C173.508 50.976 172.542 51.198 171.57 51.198C169.782 51.198 168.888 50.244 168.888 48.336C168.888 47.424 169.128 46.764 169.608 46.356C170.1 45.948 170.85 45.702 171.858 45.618L174.18 45.42V44.772C174.18 44.292 174.072 43.956 173.856 43.764C173.652 43.572 173.346 43.476 172.938 43.476C172.17 43.476 171.21 43.524 170.058 43.62L169.482 43.656L169.41 42.27C170.718 41.958 171.918 41.802 173.01 41.802C174.114 41.802 174.906 42.042 175.386 42.522C175.878 42.99 176.124 43.74 176.124 44.772ZM172.092 47.004C171.264 47.076 170.85 47.526 170.85 48.354C170.85 49.182 171.216 49.596 171.948 49.596C172.548 49.596 173.184 49.5 173.856 49.308L174.18 49.2V46.806L172.092 47.004ZM189.31 49.38L189.814 49.326L189.85 50.784C188.482 51.06 187.27 51.198 186.214 51.198C184.882 51.198 183.922 50.832 183.334 50.1C182.758 49.368 182.47 48.198 182.47 46.59C182.47 43.398 183.772 41.802 186.376 41.802C188.896 41.802 190.156 43.176 190.156 45.924L190.03 47.328H184.45C184.462 48.072 184.624 48.618 184.936 48.966C185.248 49.314 185.83 49.488 186.682 49.488C187.534 49.488 188.41 49.452 189.31 49.38ZM188.23 45.816C188.23 44.928 188.086 44.31 187.798 43.962C187.522 43.602 187.048 43.422 186.376 43.422C185.704 43.422 185.212 43.608 184.9 43.98C184.6 44.352 184.444 44.964 184.432 45.816H188.23ZM191.358 42H193.446L195.21 45.114L196.992 42H199.08L196.398 46.428L199.08 51H196.992L195.21 47.922L193.446 51H191.358L193.968 46.482L191.358 42ZM200.752 54.87V42H202.696V42.558C203.524 42.054 204.298 41.802 205.018 41.802C206.206 41.802 207.076 42.168 207.628 42.9C208.18 43.62 208.456 44.838 208.456 46.554C208.456 48.258 208.138 49.458 207.502 50.154C206.878 50.85 205.852 51.198 204.424 51.198C203.932 51.198 203.362 51.144 202.714 51.036V54.87H200.752ZM204.676 43.548C204.112 43.548 203.548 43.674 202.984 43.926L202.714 44.052V49.362C203.194 49.458 203.722 49.506 204.298 49.506C205.114 49.506 205.678 49.272 205.99 48.804C206.302 48.336 206.458 47.538 206.458 46.41C206.458 44.502 205.864 43.548 204.676 43.548ZM217.008 49.38L217.512 49.326L217.548 50.784C216.18 51.06 214.968 51.198 213.912 51.198C212.58 51.198 211.62 50.832 211.032 50.1C210.456 49.368 210.168 48.198 210.168 46.59C210.168 43.398 211.47 41.802 214.074 41.802C216.594 41.802 217.854 43.176 217.854 45.924L217.728 47.328H212.148C212.16 48.072 212.322 48.618 212.634 48.966C212.946 49.314 213.528 49.488 214.38 49.488C215.232 49.488 216.108 49.452 217.008 49.38ZM215.928 45.816C215.928 44.928 215.784 44.31 215.496 43.962C215.22 43.602 214.746 43.422 214.074 43.422C213.402 43.422 212.91 43.608 212.598 43.98C212.298 44.352 212.142 44.964 212.13 45.816H215.928ZM219.921 51V42H221.865V43.08C222.885 42.42 223.905 41.994 224.925 41.802V43.764C223.893 43.968 223.011 44.232 222.279 44.556L221.883 44.718V51H219.921ZM226.605 51V42H228.567V51H226.605ZM226.605 40.47V38.4H228.567V40.47H226.605ZM237.534 49.38L238.038 49.326L238.074 50.784C236.706 51.06 235.494 51.198 234.438 51.198C233.106 51.198 232.146 50.832 231.558 50.1C230.982 49.368 230.694 48.198 230.694 46.59C230.694 43.398 231.996 41.802 234.6 41.802C237.12 41.802 238.38 43.176 238.38 45.924L238.254 47.328H232.674C232.686 48.072 232.848 48.618 233.16 48.966C233.472 49.314 234.054 49.488 234.906 49.488C235.758 49.488 236.634 49.452 237.534 49.38ZM236.454 45.816C236.454 44.928 236.31 44.31 236.022 43.962C235.746 43.602 235.272 43.422 234.6 43.422C233.928 43.422 233.436 43.608 233.124 43.98C232.824 44.352 232.668 44.964 232.656 45.816H236.454ZM231.72 40.47L233.97 37.842H235.212L237.498 40.47H235.662L234.618 39.102L233.574 40.47H231.72ZM242.409 51H240.447V42H242.391V42.558C243.267 42.054 244.095 41.802 244.875 41.802C246.075 41.802 246.891 42.144 247.323 42.828C247.767 43.5 247.989 44.616 247.989 46.176V51H246.045V46.23C246.045 45.258 245.937 44.568 245.721 44.16C245.517 43.752 245.091 43.548 244.443 43.548C243.831 43.548 243.243 43.668 242.679 43.908L242.409 44.016V51ZM253.819 41.802C254.455 41.802 255.205 41.886 256.069 42.054L256.519 42.144L256.447 43.692C255.499 43.596 254.797 43.548 254.341 43.548C253.429 43.548 252.817 43.752 252.505 44.16C252.193 44.568 252.037 45.336 252.037 46.464C252.037 47.592 252.187 48.372 252.487 48.804C252.787 49.236 253.411 49.452 254.359 49.452L256.465 49.308L256.519 50.874C255.307 51.09 254.395 51.198 253.783 51.198C252.415 51.198 251.449 50.832 250.885 50.1C250.333 49.356 250.057 48.144 250.057 46.464C250.057 44.784 250.351 43.59 250.939 42.882C251.527 42.162 252.487 41.802 253.819 41.802ZM258.596 51V42H260.558V51H258.596ZM258.596 40.47V38.4H260.558V40.47H258.596ZM269.778 44.772V48.876C269.79 49.14 269.856 49.338 269.976 49.47C270.108 49.59 270.306 49.668 270.57 49.704L270.516 51.198C269.484 51.198 268.686 50.976 268.122 50.532C267.162 50.976 266.196 51.198 265.224 51.198C263.436 51.198 262.542 50.244 262.542 48.336C262.542 47.424 262.782 46.764 263.262 46.356C263.754 45.948 264.504 45.702 265.512 45.618L267.834 45.42V44.772C267.834 44.292 267.726 43.956 267.51 43.764C267.306 43.572 267 43.476 266.592 43.476C265.824 43.476 264.864 43.524 263.712 43.62L263.136 43.656L263.064 42.27C264.372 41.958 265.572 41.802 266.664 41.802C267.768 41.802 268.56 42.042 269.04 42.522C269.532 42.99 269.778 43.74 269.778 44.772ZM265.746 47.004C264.918 47.076 264.504 47.526 264.504 48.354C264.504 49.182 264.87 49.596 265.602 49.596C266.202 49.596 266.838 49.5 267.51 49.308L267.834 49.2V46.806L265.746 47.004Z" fill="#65408C"/>
</g>
<defs>
<filter id="filter0_d_553_1068" x="0" y="0" width="355" height="99" filterUnits="userSpaceOnUse" color-interpolation-filters="sRGB">
<feFlood flood-opacity="0" result="BackgroundImageFix"/>
<feColorMatrix in="SourceAlpha" type="matrix" values="0 0 0 0 0 0 0 0 0 0 0 0 0 0 0 0 0 0 127 0" result="hardAlpha"/>
<feOffset dy="5"/>
<feGaussianBlur stdDeviation="10"/>
<feComposite in2="hardAlpha" operator="out"/>
<feColorMatrix type="matrix" values="0 0 0 0 0.909804 0 0 0 0 0.235294 0 0 0 0 0.462745 0 0 0 0.2 0"/>
<feBlend mode="normal" in2="BackgroundImageFix" result="effect1_dropShadow_553_1068"/>
<feBlend mode="normal" in="SourceGraphic" in2="effect1_dropShadow_553_1068" result="shape"/>
</filter>
<linearGradient id="paint0_linear_553_1068" x1="178" y1="15" x2="177.5" y2="74" gradientUnits="userSpaceOnUse">
<stop stop-color="#FCFCFC"/>
<stop offset="1" stop-color="#F4D3DE"/>
</linearGradient>
<linearGradient id="paint1_linear_553_1068" x1="92.9594" y1="55.16" x2="92.9594" y2="34.2178" gradientUnits="userSpaceOnUse">
<stop stop-color="#654F97"/>
<stop offset="1" stop-color="#EF4B6D"/>
</linearGradient>
<linearGradient id="paint2_linear_553_1068" x1="92.9595" y1="55.1599" x2="92.9595" y2="34.2178" gradientUnits="userSpaceOnUse">
<stop stop-color="#654F97"/>
<stop offset="1" stop-color="#EF4B6D"/>
</linearGradient>
<linearGradient id="paint3_linear_553_1068" x1="96.1775" y1="55.1633" x2="96.1775" y2="34.2211" gradientUnits="userSpaceOnUse">
<stop stop-color="#654F97"/>
<stop offset="1" stop-color="#EF4B6D"/>
</linearGradient>
<linearGradient id="paint4_linear_553_1068" x1="100.234" y1="55.1598" x2="100.234" y2="34.2176" gradientUnits="userSpaceOnUse">
<stop stop-color="#654F97"/>
<stop offset="1" stop-color="#EF4B6D"/>
</linearGradient>
<linearGradient id="paint5_linear_553_1068" x1="96.1786" y1="55.1616" x2="96.1786" y2="34.2195" gradientUnits="userSpaceOnUse">
<stop stop-color="#654F97"/>
<stop offset="1" stop-color="#EF4B6D"/>
</linearGradient>
<linearGradient id="paint6_linear_553_1068" x1="97.9978" y1="55.1582" x2="97.9978" y2="34.216" gradientUnits="userSpaceOnUse">
<stop stop-color="#654F97"/>
<stop offset="1" stop-color="#EF4B6D"/>
</linearGradient>
<linearGradient id="paint7_linear_553_1068" x1="87.3628" y1="55.1637" x2="87.3627" y2="34.2216" gradientUnits="userSpaceOnUse">
<stop stop-color="#654F97"/>
<stop offset="1" stop-color="#EF4B6D"/>
</linearGradient>
<linearGradient id="paint8_linear_553_1068" x1="85.8199" y1="55.1598" x2="85.8199" y2="34.2176" gradientUnits="userSpaceOnUse">
<stop stop-color="#654F97"/>
<stop offset="1" stop-color="#EF4B6D"/>
</linearGradient>
<linearGradient id="paint9_linear_553_1068" x1="92.9595" y1="55.1598" x2="92.9595" y2="34.2176" gradientUnits="userSpaceOnUse">
<stop stop-color="#654F97"/>
<stop offset="1" stop-color="#EF4B6D"/>
</linearGradient>
<linearGradient id="paint10_linear_553_1068" x1="85.8199" y1="55.1599" x2="85.8199" y2="34.2178" gradientUnits="userSpaceOnUse">
<stop stop-color="#654F97"/>
<stop offset="1" stop-color="#EF4B6D"/>
</linearGradient>
<linearGradient id="paint11_linear_553_1068" x1="100.234" y1="55.1598" x2="100.234" y2="34.2176" gradientUnits="userSpaceOnUse">
<stop stop-color="#654F97"/>
<stop offset="1" stop-color="#EF4B6D"/>
</linearGradient>
<linearGradient id="paint12_linear_553_1068" x1="97.9991" y1="55.1646" x2="97.9992" y2="34.2225" gradientUnits="userSpaceOnUse">
<stop stop-color="#654F97"/>
<stop offset="1" stop-color="#EF4B6D"/>
</linearGradient>
<linearGradient id="paint13_linear_553_1068" x1="87.4415" y1="55.155" x2="87.4415" y2="34.2129" gradientUnits="userSpaceOnUse">
<stop stop-color="#654F97"/>
<stop offset="1" stop-color="#EF4B6D"/>
</linearGradient>
<linearGradient id="paint14_linear_553_1068" x1="87.3649" y1="55.1683" x2="87.3649" y2="34.2261" gradientUnits="userSpaceOnUse">
<stop stop-color="#654F97"/>
<stop offset="1" stop-color="#EF4B6D"/>
</linearGradient>
</defs>
</svg>
