<svg width="360" height="233" viewBox="0 0 360 233" fill="none" xmlns="http://www.w3.org/2000/svg">
<g filter="url(#filter0_d_327_1786)">
<path d="M87.622 67.8677L30.6467 174.511C28.9536 177.678 30.783 181.905 33.8391 181.905H326.162C329.211 181.905 331.041 177.686 329.362 174.52L272.76 67.8766C272.049 66.5388 270.851 65.7361 269.56 65.7361H90.8144C89.5302 65.7361 88.3322 66.5388 87.622 67.8677Z" fill="white" stroke="#969595" stroke-width="2" stroke-miterlimit="10"/>
<path d="M172.986 76.8625C171.926 76.8625 171.038 77.3424 171 77.9299C170.962 78.5273 171.811 79.0071 172.881 79.0071C173.96 79.0071 174.847 78.5175 174.867 77.9299C174.886 77.3424 174.045 76.8625 172.986 76.8625Z" fill="#969595"/>
<path d="M186.505 76.8625C185.445 76.8625 184.605 77.3424 184.624 77.9299C184.643 78.5273 185.541 79.0071 186.61 79.0071C187.689 79.0071 188.529 78.5175 188.491 77.9299C188.452 77.3424 187.555 76.8625 186.505 76.8625Z" fill="#969595"/>
<path d="M144.077 84.6865C142.96 84.6865 141.919 85.2153 141.747 85.8714C141.575 86.5373 142.358 87.0759 143.494 87.0759C144.63 87.0759 145.671 86.5275 145.824 85.8714C145.977 85.2153 145.194 84.6865 144.077 84.6865Z" fill="#969595"/>
<path d="M172.623 84.6865C171.506 84.6865 170.57 85.2153 170.523 85.8714C170.484 86.5373 171.372 87.0759 172.509 87.0759C173.645 87.0759 174.58 86.5275 174.609 85.8714C174.628 85.2153 173.74 84.6865 172.623 84.6865Z" fill="#969595"/>
<path d="M158.35 84.6865C157.233 84.6865 156.24 85.2153 156.135 85.8714C156.03 86.5373 156.87 87.0759 158.006 87.0759C159.142 87.0759 160.135 86.5275 160.221 85.8714C160.307 85.2153 159.467 84.6865 158.35 84.6865Z" fill="#969595"/>
<path d="M201.17 84.6865C200.052 84.6865 199.212 85.2153 199.308 85.8714C199.394 86.5373 200.396 87.0759 201.532 87.0759C202.668 87.0759 203.499 86.5275 203.394 85.8714C203.289 85.2153 202.296 84.6865 201.17 84.6865Z" fill="#969595"/>
<path d="M186.896 84.6865C185.779 84.6865 184.891 85.2153 184.92 85.8714C184.949 86.5373 185.884 87.0759 187.021 87.0759C188.157 87.0759 189.045 86.5275 188.997 85.8714C188.959 85.2153 188.013 84.6865 186.896 84.6865Z" fill="#969595"/>
<path d="M214.851 84.6865C213.734 84.6865 212.951 85.2153 213.094 85.8714C213.247 86.5373 214.287 87.0759 215.423 87.0759C216.56 87.0759 217.342 86.5275 217.171 85.8714C217.018 85.2153 215.977 84.6865 214.851 84.6865Z" fill="#969595"/>
<path d="M141.967 93.4314C140.783 93.4314 139.666 94.0287 139.484 94.7632C139.293 95.5074 140.114 96.1243 141.317 96.1243C142.52 96.1243 143.637 95.5172 143.809 94.7632C143.981 94.0287 143.151 93.4314 141.967 93.4314Z" fill="#969595"/>
<path d="M172.222 93.4314C171.038 93.4314 170.045 94.0287 169.997 94.7632C169.95 95.5074 170.895 96.1243 172.098 96.1243C173.301 96.1243 174.303 95.5172 174.322 94.7632C174.341 94.0287 173.406 93.4314 172.222 93.4314Z" fill="#969595"/>
<path d="M157.09 93.4314C155.906 93.4314 154.846 94.0287 154.731 94.7632C154.617 95.5074 155.495 96.1243 156.698 96.1243C157.901 96.1243 158.961 95.5172 159.056 94.7632C159.161 94.0287 158.283 93.4314 157.09 93.4314Z" fill="#969595"/>
<path d="M202.468 93.4314C201.284 93.4314 200.406 94.0287 200.501 94.7632C200.606 95.5074 201.656 96.1243 202.869 96.1243C204.072 96.1243 204.95 95.5172 204.836 94.7632C204.711 94.0287 203.652 93.4314 202.468 93.4314Z" fill="#969595"/>
<path d="M187.345 93.4314C186.161 93.4314 185.225 94.0287 185.244 94.7632C185.273 95.5074 186.276 96.1243 187.479 96.1243C188.681 96.1243 189.617 95.5172 189.569 94.7632C189.531 94.0287 188.529 93.4314 187.345 93.4314Z" fill="#969595"/>
<path d="M216.961 93.4314C215.777 93.4314 214.946 94.0287 215.118 94.7632C215.29 95.5074 216.407 96.1243 217.61 96.1243C218.813 96.1243 219.634 95.5172 219.443 94.7632C219.262 94.0287 218.154 93.4314 216.961 93.4314Z" fill="#969595"/>
<path d="M139.599 103.293C138.339 103.293 137.145 103.968 136.935 104.801C136.716 105.643 137.584 106.338 138.864 106.338C140.143 106.338 141.346 105.643 141.537 104.801C141.728 103.959 140.859 103.293 139.599 103.293Z" fill="#969595"/>
<path d="M123.512 103.293C122.251 103.293 120.991 103.968 120.695 104.801C120.399 105.643 121.192 106.338 122.481 106.338C123.769 106.338 125.03 105.643 125.307 104.801C125.574 103.959 124.772 103.293 123.512 103.293Z" fill="#969595"/>
<path d="M171.764 103.293C170.503 103.293 169.444 103.968 169.396 104.801C169.348 105.643 170.341 106.338 171.63 106.338C172.909 106.338 173.979 105.643 174.007 104.801C174.026 103.959 173.024 103.293 171.764 103.293Z" fill="#969595"/>
<path d="M155.677 103.293C154.416 103.293 153.29 103.968 153.156 104.801C153.022 105.643 153.958 106.338 155.237 106.338C156.517 106.338 157.653 105.643 157.758 104.801C157.872 103.959 156.937 103.293 155.677 103.293Z" fill="#969595"/>
<path d="M203.929 103.293C202.668 103.293 201.733 103.968 201.847 104.801C201.962 105.643 203.098 106.338 204.377 106.338C205.657 106.338 206.592 105.643 206.449 104.801C206.325 103.959 205.189 103.293 203.929 103.293Z" fill="#969595"/>
<path d="M187.851 103.293C186.591 103.293 185.598 103.968 185.627 104.801C185.655 105.643 186.725 106.338 188.004 106.338C189.283 106.338 190.286 105.643 190.228 104.801C190.171 103.959 189.111 103.293 187.851 103.293Z" fill="#969595"/>
<path d="M235.31 103.293C234.05 103.293 233.248 103.968 233.515 104.801C233.792 105.643 235.053 106.338 236.342 106.338C237.621 106.338 238.423 105.643 238.127 104.801C237.831 103.959 236.571 103.293 235.31 103.293Z" fill="#969595"/>
<path d="M219.347 103.293C218.087 103.293 217.218 103.968 217.409 104.801C217.6 105.643 218.803 106.338 220.083 106.338C221.362 106.338 222.231 105.643 222.011 104.801C221.792 103.959 220.598 103.293 219.347 103.293Z" fill="#969595"/>
<path d="M136.907 114.476C135.56 114.476 134.271 115.239 134.033 116.199C133.785 117.169 134.701 117.952 136.066 117.952C137.441 117.952 138.73 117.159 138.95 116.199C139.169 115.249 138.253 114.476 136.907 114.476Z" fill="#969595"/>
<path d="M119.731 114.476C118.385 114.476 117.029 115.239 116.686 116.199C116.342 117.169 117.182 117.952 118.547 117.952C119.912 117.952 121.287 117.159 121.602 116.199C121.927 115.249 121.077 114.476 119.731 114.476Z" fill="#969595"/>
<path d="M171.248 114.476C169.902 114.476 168.766 115.239 168.709 116.199C168.651 117.169 169.711 117.952 171.086 117.952C172.461 117.952 173.597 117.159 173.625 116.199C173.654 115.249 172.594 114.476 171.248 114.476Z" fill="#969595"/>
<path d="M154.073 114.476C152.727 114.476 151.514 115.239 151.361 116.199C151.209 117.169 152.201 117.952 153.567 117.952C154.942 117.952 156.154 117.159 156.278 116.199C156.412 115.249 155.419 114.476 154.073 114.476Z" fill="#969595"/>
<path d="M205.59 114.476C204.244 114.476 203.26 115.239 203.384 116.199C203.518 117.169 204.731 117.952 206.105 117.952C207.48 117.952 208.464 117.159 208.301 116.199C208.148 115.249 206.936 114.476 205.59 114.476Z" fill="#969595"/>
<path d="M188.414 114.476C187.068 114.476 186.008 115.239 186.047 116.199C186.085 117.169 187.221 117.952 188.596 117.952C189.971 117.952 191.03 117.159 190.964 116.199C190.906 115.249 189.761 114.476 188.414 114.476Z" fill="#969595"/>
<path d="M239.091 114.476C237.745 114.476 236.905 115.239 237.211 116.199C237.526 117.169 238.891 117.952 240.266 117.952C241.641 117.952 242.471 117.159 242.128 116.199C241.803 115.249 240.438 114.476 239.091 114.476Z" fill="#969595"/>
<path d="M222.04 114.476C220.694 114.476 219.777 115.239 219.997 116.199C220.216 117.169 221.505 117.952 222.88 117.952C224.255 117.952 225.162 117.159 224.914 116.199C224.675 115.249 223.386 114.476 222.04 114.476Z" fill="#969595"/>
<path d="M133.823 127.294C132.381 127.294 130.987 128.175 130.711 129.282C130.424 130.398 131.388 131.309 132.859 131.309C134.329 131.309 135.732 130.398 135.99 129.282C136.238 128.175 135.265 127.294 133.823 127.294Z" fill="#969595"/>
<path d="M115.406 127.294C113.964 127.294 112.485 128.175 112.093 129.282C111.702 130.398 112.58 131.309 114.05 131.309C115.521 131.309 117.01 130.398 117.373 129.282C117.736 128.175 116.848 127.294 115.406 127.294Z" fill="#969595"/>
<path d="M170.656 127.294C169.215 127.294 167.993 128.175 167.926 129.282C167.859 130.398 168.995 131.309 170.475 131.309C171.945 131.309 173.177 130.398 173.205 129.282C173.234 128.175 172.098 127.294 170.656 127.294Z" fill="#969595"/>
<path d="M152.239 127.294C150.798 127.294 149.49 128.175 149.318 129.282C149.146 130.398 150.196 131.309 151.667 131.309C153.137 131.309 154.454 130.398 154.598 129.282C154.741 128.175 153.681 127.294 152.239 127.294Z" fill="#969595"/>
<path d="M207.48 127.294C206.038 127.294 204.988 128.175 205.131 129.282C205.284 130.398 206.602 131.309 208.072 131.309C209.542 131.309 210.593 130.398 210.411 129.282C210.239 128.175 208.931 127.294 207.48 127.294Z" fill="#969595"/>
<path d="M189.073 127.294C187.631 127.294 186.495 128.175 186.533 129.282C186.572 130.398 187.803 131.309 189.273 131.309C190.744 131.309 191.88 130.398 191.813 129.282C191.737 128.175 190.515 127.294 189.073 127.294Z" fill="#969595"/>
<path d="M225.133 127.294C223.691 127.294 222.718 128.175 222.975 129.282C223.233 130.398 224.627 131.309 226.107 131.309C227.577 131.309 228.541 130.398 228.255 129.282C227.969 128.175 226.575 127.294 225.133 127.294Z" fill="#969595"/>
<path d="M243.955 127.294C242.513 127.294 241.539 128.175 241.797 129.282C242.055 130.398 243.449 131.309 244.929 131.309C246.399 131.309 247.363 130.398 247.077 129.282C246.79 128.175 245.396 127.294 243.955 127.294Z" fill="#969595"/>
<path d="M130.262 142.1C128.705 142.1 127.187 143.128 126.853 144.411C126.519 145.704 127.541 146.771 129.135 146.771C130.729 146.771 132.257 145.704 132.553 144.411C132.839 143.128 131.818 142.1 130.262 142.1Z" fill="#969595"/>
<path d="M169.969 142.1C168.413 142.1 167.095 143.128 167.009 144.411C166.933 145.704 168.155 146.771 169.749 146.771C171.344 146.771 172.661 145.704 172.709 144.411C172.757 143.128 171.525 142.1 169.969 142.1Z" fill="#969595"/>
<path d="M150.11 142.1C148.554 142.1 147.132 143.128 146.931 144.411C146.731 145.704 147.848 146.771 149.442 146.771C151.037 146.771 152.459 145.704 152.631 144.411C152.793 143.128 151.667 142.1 150.11 142.1Z" fill="#969595"/>
<path d="M209.676 142.1C208.12 142.1 206.993 143.128 207.165 144.411C207.337 145.704 208.769 146.771 210.363 146.771C211.958 146.771 213.075 145.704 212.865 144.411C212.664 143.128 211.232 142.1 209.676 142.1Z" fill="#969595"/>
<path d="M189.827 142.1C188.271 142.1 187.049 143.128 187.097 144.411C187.145 145.704 188.472 146.771 190.066 146.771C191.66 146.771 192.882 145.704 192.797 144.411C192.711 143.128 191.384 142.1 189.827 142.1Z" fill="#969595"/>
<path d="M228.704 142.1C227.148 142.1 226.117 143.128 226.412 144.411C226.708 145.704 228.236 146.771 229.83 146.771C231.425 146.771 232.437 145.704 232.112 144.411C231.788 143.128 230.26 142.1 228.704 142.1Z" fill="#969595"/>
<path d="M169.167 159.433C167.477 159.433 166.035 160.637 165.949 162.155C165.854 163.683 167.181 164.936 168.909 164.936C170.637 164.936 172.079 163.683 172.126 162.155C172.184 160.637 170.857 159.433 169.167 159.433Z" fill="#969595"/>
<path d="M190.706 159.433C189.016 159.433 187.698 160.637 187.755 162.155C187.813 163.683 189.264 164.936 190.992 164.936C192.72 164.936 194.038 163.683 193.942 162.155C193.837 160.637 192.395 159.433 190.706 159.433Z" fill="#969595"/>
<g filter="url(#filter1_d_327_1786)">
<path d="M124.128 42.1793L128.511 95.2346C128.663 97.1256 129.539 98.8888 130.962 100.166L174.691 139.65C176.091 140.924 177.926 141.632 179.832 141.632C181.737 141.632 183.573 140.924 184.972 139.65L229.718 99.6049C231.199 98.2829 232.09 96.4388 232.2 94.4728L235.25 42.059C235.344 40.4847 234.932 38.9214 234.075 37.5902C233.217 36.2591 231.956 35.2275 230.471 34.6415L182.44 15.5965C180.616 14.8744 178.58 14.8744 176.755 15.5965L128.918 34.6014C127.399 35.1888 126.113 36.2433 125.25 37.6084C124.387 38.9735 123.994 40.5764 124.128 42.1793Z" fill="url(#paint0_linear_327_1786)"/>
<path d="M179.705 130.097C179.3 130.097 178.912 129.939 178.626 129.657C178.34 129.375 178.179 128.992 178.179 128.594V72.1803L134.786 45.3769C134.606 45.2773 134.448 45.1427 134.323 44.9813C134.197 44.8198 134.106 44.635 134.055 44.4378C134.004 44.2407 133.994 44.0354 134.026 43.8343C134.058 43.6333 134.13 43.4407 134.24 43.2683C134.35 43.0958 134.493 42.9471 134.663 42.831C134.833 42.715 135.024 42.6341 135.226 42.5932C135.429 42.5523 135.637 42.5523 135.839 42.5931C136.042 42.634 136.233 42.7149 136.403 42.8309L180.508 70.0753C180.729 70.209 180.911 70.3962 181.037 70.619C181.164 70.8419 181.23 71.093 181.23 71.3483V128.594C181.23 128.992 181.069 129.375 180.783 129.657C180.497 129.939 180.109 130.097 179.705 130.097Z" fill="url(#paint1_radial_327_1786)"/>
<path d="M179.705 72.8516C179.374 72.852 179.051 72.7462 178.787 72.5502C178.522 72.3542 178.329 72.0787 178.237 71.7652C178.145 71.4517 178.16 71.1172 178.277 70.8123C178.395 70.5074 178.611 70.2486 178.891 70.075L222.701 42.8306C223.044 42.618 223.458 42.5481 223.853 42.6365C224.248 42.7248 224.591 42.9641 224.806 43.3018C225.022 43.6394 225.093 44.0477 225.003 44.4368C224.914 44.8259 224.671 45.164 224.328 45.3767L180.518 72.621C180.275 72.773 179.993 72.853 179.705 72.8516Z" fill="url(#paint2_radial_327_1786)"/>
<path d="M179.461 27.5348C179.261 27.5348 179.063 27.4959 178.878 27.4202C178.694 27.3445 178.526 27.2336 178.386 27.0938C178.245 26.9541 178.133 26.7883 178.058 26.6059C177.982 26.4235 177.944 26.2282 177.945 26.0313L178.027 12.6096C178.027 12.2176 178.182 11.8412 178.459 11.5603C178.736 11.2795 179.114 11.1165 179.511 11.106C179.716 11.102 179.919 11.1382 180.108 11.2125C180.298 11.2868 180.471 11.3976 180.617 11.5386C180.763 11.6795 180.879 11.8477 180.958 12.0333C181.037 12.219 181.078 12.4183 181.078 12.6196L180.986 26.0413C180.981 26.4375 180.818 26.8159 180.533 27.0951C180.248 27.3744 179.863 27.5322 179.461 27.5348Z" fill="#E83C76"/>
<path d="M233.623 99.7855C233.343 99.7872 233.068 99.7108 232.83 99.5649L219.071 91.2954C218.742 91.0806 218.51 90.7485 218.424 90.3689C218.338 89.9893 218.405 89.5916 218.611 89.2595C218.816 88.9273 219.144 88.6866 219.525 88.5877C219.907 88.4889 220.313 88.5396 220.657 88.7294L234.427 97.039C234.711 97.2102 234.931 97.4685 235.052 97.7745C235.173 98.0804 235.19 98.4171 235.099 98.733C235.008 99.049 234.814 99.3269 234.548 99.5242C234.281 99.7214 233.957 99.8273 233.623 99.8256V99.7855Z" fill="url(#paint3_linear_327_1786)"/>
<path d="M126.843 100.457C126.588 100.458 126.336 100.396 126.112 100.275C125.888 100.154 125.699 99.9783 125.562 99.7653C125.343 99.4314 125.267 99.0256 125.351 98.6368C125.435 98.248 125.672 97.9077 126.01 97.6904L139.291 89.2304C139.458 89.1064 139.649 89.0176 139.853 88.9696C140.056 88.9216 140.268 88.9153 140.474 88.9511C140.68 88.987 140.876 89.0643 141.05 89.1781C141.225 89.292 141.374 89.44 141.488 89.6129C141.601 89.7858 141.678 89.98 141.713 90.1834C141.747 90.3868 141.739 90.595 141.688 90.7951C141.638 90.9952 141.546 91.1829 141.419 91.3465C141.292 91.5102 141.131 91.6463 140.949 91.7463L127.667 100.216C127.422 100.373 127.136 100.456 126.843 100.457Z" fill="url(#paint4_linear_327_1786)"/>
<path d="M179.847 146.656C176.666 146.655 173.602 145.474 171.264 143.348L127.535 103.865C125.17 101.729 123.717 98.7877 123.467 95.6357L119.044 42.5904C118.818 39.9175 119.473 37.2441 120.911 34.9671C122.349 32.6902 124.494 30.9309 127.027 29.9505L174.894 11.0058C177.932 9.80309 181.324 9.80309 184.362 11.0058L232.403 30.0508C234.875 31.0295 236.973 32.7492 238.4 34.9669C239.827 37.1847 240.511 39.7883 240.355 42.4099L237.254 94.8238C237.06 98.0829 235.574 101.136 233.115 103.324L188.369 143.419C186.035 145.504 182.997 146.658 179.847 146.656ZM124.128 42.1794L128.511 95.2347C128.663 97.1258 129.539 98.889 130.962 100.166L174.691 139.65C176.091 140.924 177.926 141.632 179.832 141.632C181.737 141.632 183.573 140.924 184.972 139.65L229.718 99.6051C231.199 98.2831 232.09 96.4389 232.2 94.4729L235.25 42.0591C235.344 40.4848 234.932 38.9215 234.075 37.5904C233.217 36.2592 231.956 35.2276 230.471 34.6416L182.44 15.5966C180.616 14.8746 178.58 14.8746 176.755 15.5966L128.918 34.6015C127.399 35.1889 126.113 36.2434 125.25 37.6085C124.387 38.9736 123.994 40.5765 124.128 42.1794Z" fill="url(#paint5_linear_327_1786)"/>
<path d="M171.02 143.419L126.304 103.324C123.837 101.121 122.35 98.0494 122.165 94.7736L119.043 42.3699C118.89 39.7447 119.578 37.1384 121.011 34.9203C122.444 32.7021 124.548 30.9845 127.026 30.0107L175.057 11.0058C178.095 9.80309 181.487 9.80309 184.525 11.0058L232.393 29.9505C234.918 30.9376 237.054 32.6997 238.484 34.9761C239.914 37.2525 240.563 39.9222 240.335 42.5904L235.993 95.6357C235.738 98.7863 234.285 101.726 231.925 103.865L188.196 143.348C185.859 145.465 182.802 146.64 179.628 146.64C176.455 146.64 173.397 145.465 171.06 143.348L171.02 143.419ZM235.271 42.1794C235.406 40.5778 235.015 38.9758 234.156 37.6096C233.298 36.2435 232.016 35.1854 230.501 34.5915L182.633 15.6567C180.809 14.9347 178.773 14.9347 176.949 15.6567L128.918 34.6616C127.432 35.2473 126.17 36.2785 125.31 37.6095C124.451 38.9405 124.037 40.504 124.128 42.0792L127.24 94.493C127.349 96.459 128.241 98.3031 129.721 99.6251L174.467 139.67C175.867 140.944 177.702 141.652 179.608 141.652C181.513 141.652 183.349 140.944 184.749 139.67L228.477 100.186C229.897 98.9008 230.766 97.13 230.908 95.2347L235.271 42.1794Z" fill="url(#paint6_linear_327_1786)"/>
</g>
</g>
<defs>
<filter id="filter0_d_327_1786" x="-1" y="-9" width="362" height="241.905" filterUnits="userSpaceOnUse" color-interpolation-filters="sRGB">
<feFlood flood-opacity="0" result="BackgroundImageFix"/>
<feColorMatrix in="SourceAlpha" type="matrix" values="0 0 0 0 0 0 0 0 0 0 0 0 0 0 0 0 0 0 127 0" result="hardAlpha"/>
<feOffset dy="20"/>
<feGaussianBlur stdDeviation="15"/>
<feComposite in2="hardAlpha" operator="out"/>
<feColorMatrix type="matrix" values="0 0 0 0 0.909804 0 0 0 0 0.235294 0 0 0 0 0.462745 0 0 0 0.05 0"/>
<feBlend mode="normal" in2="BackgroundImageFix" result="effect1_dropShadow_327_1786"/>
<feBlend mode="normal" in="SourceGraphic" in2="effect1_dropShadow_327_1786" result="shape"/>
</filter>
<filter id="filter1_d_327_1786" x="109" y="10.1038" width="141.38" height="156.552" filterUnits="userSpaceOnUse" color-interpolation-filters="sRGB">
<feFlood flood-opacity="0" result="BackgroundImageFix"/>
<feColorMatrix in="SourceAlpha" type="matrix" values="0 0 0 0 0 0 0 0 0 0 0 0 0 0 0 0 0 0 127 0" result="hardAlpha"/>
<feOffset dy="10"/>
<feGaussianBlur stdDeviation="5"/>
<feComposite in2="hardAlpha" operator="out"/>
<feColorMatrix type="matrix" values="0 0 0 0 0.8 0 0 0 0 0.878431 0 0 0 0 0.956863 0 0 0 0.33 0"/>
<feBlend mode="normal" in2="BackgroundImageFix" result="effect1_dropShadow_327_1786"/>
<feBlend mode="normal" in="SourceGraphic" in2="effect1_dropShadow_327_1786" result="shape"/>
</filter>
<linearGradient id="paint0_linear_327_1786" x1="179.715" y1="138.627" x2="179.715" y2="17.2103" gradientUnits="userSpaceOnUse">
<stop stop-color="white" stop-opacity="0.9"/>
<stop offset="0.58" stop-color="#F2F7FC" stop-opacity="0.95"/>
<stop offset="1" stop-color="#E5EFF9"/>
</linearGradient>
<radialGradient id="paint1_radial_327_1786" cx="0" cy="0" r="1" gradientUnits="userSpaceOnUse" gradientTransform="translate(179.328 71.1578) scale(52.4848 51.7322)">
<stop offset="0.01" stop-color="#E83C76"/>
<stop offset="0.15" stop-color="#E35B8E"/>
<stop offset="0.44" stop-color="#D994B9"/>
<stop offset="0.69" stop-color="#D2BDD9"/>
<stop offset="0.88" stop-color="#CED7ED"/>
<stop offset="1" stop-color="#CCE0F4"/>
</radialGradient>
<radialGradient id="paint2_radial_327_1786" cx="0" cy="0" r="1" gradientUnits="userSpaceOnUse" gradientTransform="translate(179.328 71.1576) scale(52.4848 51.7322)">
<stop offset="0.01" stop-color="#E83C76"/>
<stop offset="0.15" stop-color="#E35B8E"/>
<stop offset="0.44" stop-color="#D994B9"/>
<stop offset="0.69" stop-color="#D2BDD9"/>
<stop offset="0.88" stop-color="#CED7ED"/>
<stop offset="1" stop-color="#CCE0F4"/>
</radialGradient>
<linearGradient id="paint3_linear_327_1786" x1="231.488" y1="96.9287" x2="220.004" y2="89.9362" gradientUnits="userSpaceOnUse">
<stop offset="0.01" stop-color="#B882B1"/>
<stop offset="0.15" stop-color="#BC94BE"/>
<stop offset="0.53" stop-color="#C5BDDB"/>
<stop offset="0.82" stop-color="#CAD7ED"/>
<stop offset="1" stop-color="#CCE0F4"/>
</linearGradient>
<linearGradient id="paint4_linear_327_1786" x1="128.989" y1="97.6503" x2="141.377" y2="89.3263" gradientUnits="userSpaceOnUse">
<stop offset="0.01" stop-color="#B882B1"/>
<stop offset="0.15" stop-color="#BC94BE"/>
<stop offset="0.53" stop-color="#C5BDDB"/>
<stop offset="0.82" stop-color="#CAD7ED"/>
<stop offset="1" stop-color="#CCE0F4"/>
</linearGradient>
<linearGradient id="paint5_linear_327_1786" x1="179.715" y1="143.409" x2="179.715" y2="12.369" gradientUnits="userSpaceOnUse">
<stop stop-color="#D2C4E0"/>
<stop offset="0.16" stop-color="#B5A0CC"/>
<stop offset="0.43" stop-color="#D17191"/>
<stop offset="0.77" stop-color="#F1427D"/>
<stop offset="0.99" stop-color="#ED2166"/>
</linearGradient>
<linearGradient id="paint6_linear_327_1786" x1="179.727" y1="143.393" x2="179.727" y2="12.3687" gradientUnits="userSpaceOnUse">
<stop stop-color="#D2C4E0"/>
<stop offset="0.16" stop-color="#B5A0CC"/>
<stop offset="0.43" stop-color="#D17191"/>
<stop offset="0.77" stop-color="#F1427D"/>
<stop offset="0.99" stop-color="#ED2166"/>
</linearGradient>
</defs>
</svg>
