<svg width="196" height="12" viewBox="0 0 196 12" fill="none" xmlns="http://www.w3.org/2000/svg">
<path d="M5.89914 11.4927C9.15715 11.4927 11.7983 9.01394 11.7983 5.95629C11.7983 2.89864 9.15715 0.419922 5.89914 0.419922C2.64114 0.419922 0 2.89864 0 5.95629C0 9.01394 2.64114 11.4927 5.89914 11.4927Z" fill="#B5A0CC"/>
<path d="M97.9573 5.95605L189.915 5.95605" stroke="#B5A0CC" stroke-width="2" stroke-linecap="round" stroke-linejoin="round"/>
<path d="M189.814 11.4927C193.072 11.4927 195.713 9.01394 195.713 5.95629C195.713 2.89864 193.072 0.419922 189.814 0.419922C186.556 0.419922 183.915 2.89864 183.915 5.95629C183.915 9.01394 186.556 11.4927 189.814 11.4927Z" fill="#B5A0CC"/>
<path d="M6 5.95605L97.9572 5.95605" stroke="#B5A0CC" stroke-width="2" stroke-linecap="round" stroke-linejoin="round"/>
<path d="M97.8564 11.4927C101.114 11.4927 103.756 9.01394 103.756 5.95629C103.756 2.89864 101.114 0.419922 97.8564 0.419922C94.5984 0.419922 91.9573 2.89864 91.9573 5.95629C91.9573 9.01394 94.5984 11.4927 97.8564 11.4927Z" fill="#B5A0CC"/>
</svg>
