<svg width="79" height="121" viewBox="0 0 79 121" fill="none" xmlns="http://www.w3.org/2000/svg">
<path d="M15.0282 28.4005L22.523 38.0815C24.7573 40.9675 24.229 45.1184 21.343 47.3527L20.5677 47.9529C17.6816 50.1872 13.5308 49.6589 11.2965 46.7728L3.80167 37.0918C1.56737 34.2058 2.09571 30.0549 4.98175 27.8206L5.75704 27.2204C8.64307 24.9861 12.7939 25.5144 15.0282 28.4005Z" fill="white"/>
<path d="M20.2408 59.1443C20.5141 59.175 20.7908 59.1514 21.055 59.0749C21.3191 58.9984 21.5656 58.8705 21.7802 58.6984C23.5814 57.304 24.3934 51.5797 24.7214 48.2969C25.0494 45.0141 25.3563 39.1742 23.7785 37.0993L16.2879 27.4238C14.9545 25.706 12.9942 24.5871 10.837 24.3125C8.67985 24.0379 6.50182 24.6301 4.7806 25.9591L4.00457 26.5599C2.28872 27.8933 1.17123 29.8523 0.896855 32.008C0.622477 34.1636 1.21357 36.3401 2.54068 38.0608L18.7858 58.2724C19.1061 58.7068 19.5747 59.0085 20.1027 59.1203L20.2408 59.1443ZM10.4038 27.4643C11.0625 27.5399 11.6995 27.7462 12.2775 28.071C12.8555 28.3958 13.3628 28.8327 13.7699 29.356L21.2668 39.0324C22.3886 40.6064 21.6382 51.2419 20.3155 55.0784L5.0461 36.0756C4.23776 35.0241 3.87808 33.6956 4.04555 32.3799C4.21302 31.0641 4.89404 29.8681 5.94003 29.0526L6.73421 28.4605C7.25519 28.0591 7.85043 27.7649 8.48564 27.5946C9.12086 27.4243 9.78348 27.3814 10.4354 27.4683L10.4038 27.4643Z" fill="url(#paint0_linear_0_1)"/>
<path d="M9.60314 92.0439C9.60314 92.0439 15.6053 103.077 23.2974 111.623C30.9895 120.169 40.7698 122.646 57.4348 114.498L73.3975 102.288L38.2774 66.1385L9.60314 92.0439Z" fill="white"/>
<path d="M19.6022 9.90736C19.8126 7.59635 20.9054 5.45527 22.6535 3.9291C24.4015 2.40294 26.6705 1.60908 28.9888 1.7125L57.5605 3.18633C58.6848 3.23951 59.7869 3.51957 60.8002 4.00966C61.8136 4.49976 62.7173 5.18977 63.4571 6.03818C64.1969 6.88659 64.7575 7.87587 65.105 8.94652C65.4526 10.0172 65.58 11.1471 65.4796 12.2682L59.2887 85.2108C59.0184 87.5869 57.9377 89.7974 56.2285 91.47C54.5193 93.1427 52.2861 94.1754 49.9047 94.3943L21.1755 96.225C20.0946 96.329 19.0042 96.1907 17.9835 95.8201C16.9628 95.4494 16.0377 94.8559 15.2754 94.0826C14.5131 93.3092 13.9328 92.3756 13.5769 91.3498C13.2209 90.3239 13.0983 89.2316 13.2178 88.1523L19.6022 9.90736Z" fill="white"/>
<path d="M19.3708 97.7474C20.0066 97.8302 20.6491 97.8497 21.2888 97.8054L50.0172 95.981C52.7742 95.7253 55.3586 94.5266 57.3347 92.5871C59.3107 90.6477 60.5575 88.086 60.8646 85.3343L67.0681 12.3933C67.1886 11.058 67.0378 9.7121 66.6248 8.43653C66.2118 7.16097 65.5451 5.98209 64.6648 4.97077C63.7846 3.95945 62.7089 3.13657 61.5025 2.5516C60.296 1.96663 58.9838 1.63165 57.6446 1.5668L29.0436 0.121337C26.3156 0.000250305 23.6462 0.936554 21.5915 2.73512C19.5368 4.53369 18.2554 7.05578 18.0144 9.7758L11.6458 87.9971C11.5111 89.3041 11.6646 90.6248 12.0954 91.8661C12.5262 93.1074 13.2239 94.2392 14.1393 95.1818C15.5411 96.6063 17.3862 97.5111 19.3708 97.7474V97.7474ZM58.0069 4.82194C59.7443 5.03862 61.3296 5.9221 62.4278 7.28579C63.526 8.64948 64.0513 10.3866 63.8926 12.1303L57.6899 85.065C57.4461 87.059 56.5317 88.9108 55.0967 90.3166C53.6618 91.7224 51.7915 92.5985 49.7929 92.8012L21.0646 94.6256C20.213 94.7089 19.3536 94.6005 18.5495 94.3083C17.7453 94.016 17.0168 93.5474 16.4174 92.9368C15.8181 92.3263 15.363 91.5892 15.0858 90.7798C14.8085 89.9704 14.716 89.1091 14.8151 88.2593L21.1845 10.0317C21.3548 8.13664 22.2493 6.38026 23.6818 5.12806C25.1144 3.87586 26.9746 3.22429 28.8754 3.30895L57.4763 4.75441C57.6532 4.77692 57.83 4.79943 58.0069 4.82194Z" fill="url(#paint1_linear_0_1)"/>
<path d="M43.6302 15.161C41.5618 14.8977 40.0984 13.0075 40.3617 10.939C40.625 8.8706 42.5152 7.40723 44.5836 7.67051C46.6521 7.93379 48.1154 9.82401 47.8522 11.8924C47.5889 13.9609 45.6986 15.4242 43.6302 15.161Z" fill="#E83C76"/>
<path d="M14.6826 49.8688L21.3647 50.7193C24.9853 51.1801 27.5468 54.4888 27.086 58.1094L26.9622 59.0821C26.5013 62.7027 23.1926 65.2642 19.572 64.8034L12.89 63.9528C9.26934 63.492 6.70783 60.1833 7.16868 56.5627L7.29247 55.5901C7.75332 51.9694 11.062 49.4079 14.6826 49.8688Z" fill="white"/>
<path d="M14.6151 78.4847L23.4824 79.6133C27.103 80.0742 29.6645 83.3828 29.2036 87.0035L29.0798 87.9761C28.619 91.5967 25.3103 94.1582 21.6897 93.6974L12.8224 92.5687C9.20178 92.1079 6.64026 88.7992 7.10111 85.1786L7.22491 84.2059C7.68576 80.5853 10.9944 78.0238 14.6151 78.4847Z" fill="white"/>
<path d="M10.3382 63.6282L22.4833 65.1741C26.104 65.635 28.6655 68.9436 28.2046 72.5643L28.0808 73.5369C27.62 77.1575 24.3113 79.719 20.6907 79.2582L8.54551 77.7123C4.92489 77.2515 2.36338 73.9428 2.82422 70.3221L2.94802 69.3495C3.40887 65.7289 6.71756 63.1674 10.3382 63.6282Z" fill="white"/>
<path d="M64.3364 107.219C55.7313 109.275 49.2002 108.701 47.1491 100.057C46.2774 96.3761 46.7331 92.5051 48.4358 89.1267C50.1385 85.7484 52.9791 83.0794 56.4568 81.5902L45.9653 75.1203C40.6075 71.8326 41.1538 63.1544 45.6076 62.0975C50.0615 61.0406 48.3805 61.6418 59.0573 68.2186C69.7342 74.7955 71.6513 68.6086 76.2578 87.833L76.2529 87.8709C76.2529 87.8709 77.2913 94.5879 77.2809 94.6187C73.2775 102.928 71.1115 105.675 66.092 107.898L64.4533 107.208L64.3364 107.219Z" fill="white"/>
<path d="M7.17952 62.3275C5.88755 60.6196 5.31732 58.473 5.59146 56.3491L5.71365 55.3891C5.99133 53.2342 7.11156 51.2771 8.82908 49.9464C10.5466 48.6157 12.7214 48.0197 14.8774 48.2891L21.5594 49.1396C23.7168 49.4159 25.6764 50.5366 27.0085 52.2558C28.3405 53.9751 28.9363 56.1525 28.665 58.3105L28.5412 59.2831C28.2845 61.3503 27.247 63.2411 25.6414 64.5683C27.0763 65.3618 28.2404 66.5672 28.9833 68.0289C29.7262 69.4906 30.0139 71.1415 29.8092 72.7683L29.6854 73.741C29.4189 75.8247 28.3611 77.7262 26.731 79.0513C28.1453 79.854 29.2894 81.0585 30.0185 82.5121C30.7475 83.9656 31.0286 85.6029 30.8262 87.2165L30.7032 88.1828C30.4269 90.3401 29.3062 92.2997 27.5869 93.6318C25.8677 94.9639 23.6902 95.5596 21.5323 95.2883L13.3282 94.2441C15.3422 97.9854 19.3581 104.857 24.4791 110.56C31.8261 118.741 46.5125 119.936 56.545 113.171C58.1457 112.092 59.7859 111.055 61.3762 110.057C70.9371 104.022 78.4783 99.2827 74.787 88.499C74.7606 88.4234 74.7405 88.3457 74.7267 88.2667C74.7267 88.2667 74.7267 88.2667 74.7267 88.2667C74.7259 88.2518 74.7278 88.2368 74.7324 88.2225C71.6154 75.2464 70.1249 74.7037 65.7015 73.1009C63.0908 72.2075 60.5869 71.0278 58.2357 69.5835C55.0167 67.5949 52.9391 66.1688 51.422 65.1285C48.4353 63.0796 48.4361 63.0733 45.9938 63.6546C44.8948 63.919 44.0812 65.067 43.8113 66.7334C43.4453 69.0037 44.2287 72.1777 46.8177 73.7716L57.3155 80.2422C57.6461 80.4502 57.8903 80.7708 58.0029 81.1448C58.1178 81.5181 58.0908 81.9206 57.9273 82.2752C57.7637 82.6298 57.475 82.9116 57.1165 83.0665C54.7103 84.0959 52.6284 85.7589 51.0928 87.8782C49.5572 89.9974 48.6253 92.4936 48.3965 95.1008C48.3786 95.3089 48.3197 95.5115 48.2232 95.6968C48.1268 95.8821 47.9947 96.0465 47.8345 96.1806C47.6742 96.3147 47.4891 96.4158 47.2897 96.4781C47.0903 96.5404 46.8805 96.5626 46.6725 96.5436C46.2541 96.501 45.8687 96.2971 45.5982 95.9751C45.3276 95.653 45.1932 95.2383 45.2233 94.8188C45.4596 92.129 46.3105 89.5294 47.7104 87.2206C49.1104 84.9117 51.022 82.9553 53.2979 81.5022L45.1627 76.4876C41.3064 74.1098 40.1383 69.6225 40.6924 66.2273C41.1745 63.2465 42.8881 61.1285 45.2648 60.5581C48.9507 59.6859 49.484 59.9335 53.2324 62.5029C54.7194 63.5265 56.7742 64.9305 59.916 66.8707C62.0824 68.1982 64.3901 69.2798 66.7964 70.0955C72.3893 72.091 74.4906 73.5329 77.8234 87.435L77.8501 87.5283C82.3029 100.649 72.5419 106.794 63.0885 112.74C61.5188 113.728 59.9 114.747 58.3411 115.8C52.302 119.744 45.0492 121.392 37.899 120.444C31.7601 119.663 26.0392 117.009 22.1258 112.661C14.3849 104.044 9.26188 93.2644 9.04968 92.8138L9.02063 92.7395C7.7791 91.8872 6.79582 90.7099 6.1783 89.3364C5.56078 87.9628 5.3328 86.446 5.51927 84.9516L5.64227 83.9853C5.87209 82.1728 6.70569 80.4905 8.00865 79.2098C5.92928 78.8544 4.06662 77.712 2.8073 76.0196C1.54798 74.3272 0.988728 72.2149 1.24562 70.1211L1.36942 69.1484C1.57183 67.5704 2.22888 66.0854 3.26051 64.8743C4.29214 63.6632 5.65379 62.7783 7.17952 62.3275V62.3275ZM25.5071 57.9085C25.6718 56.5881 25.3065 55.2562 24.4913 54.2046C23.6761 53.1529 22.4773 52.4671 21.1575 52.2975L14.4755 51.4469C13.1558 51.2807 11.8241 51.6445 10.7724 52.4588C9.72069 53.273 9.03481 54.4711 8.8652 55.7903L8.74141 56.7629C8.5734 58.0828 8.93661 59.4154 9.75115 60.4676C10.5657 61.5197 11.7648 62.2051 13.0847 62.3731L19.7668 63.2237C21.0873 63.3917 22.4205 63.0288 23.4736 62.2146C24.5267 61.4004 25.2136 60.2014 25.3834 58.8811L25.5071 57.9085ZM8.68023 85.3796C8.51375 86.7009 8.87809 88.0343 9.69334 89.0874C10.5086 90.1404 11.7082 90.8272 13.0291 90.997L21.8711 92.1224C23.1918 92.2888 24.5246 91.9242 25.5767 91.1087C26.6287 90.2931 27.3141 89.0933 27.4822 87.7728L27.6052 86.8065C27.7732 85.486 27.4103 84.1527 26.5961 83.0996C25.7819 82.0465 24.5829 81.3597 23.2626 81.1899L14.4206 80.0645C13.0993 79.898 11.7659 80.2623 10.7129 81.0776C9.6598 81.8928 8.97305 83.0924 8.80323 84.4133L8.68023 85.3796ZM4.40349 70.523C4.23722 71.8426 4.6011 73.1743 5.41532 74.226C6.22953 75.2778 7.42762 75.9636 8.74682 76.1333L20.892 77.6791C22.2116 77.8454 23.5433 77.4815 24.595 76.6673C25.6467 75.8531 26.3326 74.655 26.5022 73.3358L26.626 72.3632C26.7906 71.0439 26.426 69.713 25.6121 68.6617C24.7982 67.6104 23.6012 66.9241 22.2827 66.7529L10.1565 65.2095C8.83717 65.0449 7.50636 65.4094 6.45505 66.2234C5.40373 67.0373 4.71745 68.2343 4.54624 69.5528L4.40349 70.523Z" fill="url(#paint2_linear_0_1)"/>
<defs>
<linearGradient id="paint0_linear_0_1" x1="14.7736" y1="24.8136" x2="10.5607" y2="57.9122" gradientUnits="userSpaceOnUse">
<stop stop-color="#E83C76"/>
<stop offset="1" stop-color="#959595"/>
</linearGradient>
<linearGradient id="paint1_linear_0_1" x1="45.4087" y1="-0.0212766" x2="41.4468" y2="99.8028" gradientUnits="userSpaceOnUse">
<stop stop-color="#E83C76"/>
<stop offset="1" stop-color="#69509B"/>
</linearGradient>
<linearGradient id="paint2_linear_0_1" x1="43.9708" y1="51.9922" x2="35.3" y2="120.114" gradientUnits="userSpaceOnUse">
<stop stop-color="#E83C76"/>
<stop offset="1" stop-color="#959595"/>
</linearGradient>
</defs>
</svg>
