<svg width="85" height="79" viewBox="0 0 85 79" fill="none" xmlns="http://www.w3.org/2000/svg">
<path d="M46.8728 45.5801V19.8128C46.8728 18.6068 46.406 17.4502 45.5751 16.5975C44.7441 15.7447 43.6171 15.2656 42.442 15.2656C41.2669 15.2656 40.1399 15.7447 39.309 16.5975C38.4781 17.4502 38.0113 18.6068 38.0113 19.8128V55.9325L30.7596 48.4903C27.0673 44.701 20.1257 46.8382 20.1257 50.7639C20.1257 54.6896 20.2882 53.1588 27.6728 60.7374C35.0574 68.316 33.5805 77.4104 55.7343 77.4104C60.4348 77.4104 64.9427 75.4941 68.2664 72.083C71.5901 68.672 73.4574 64.0456 73.4574 59.2217V41.033C73.4574 39.827 72.9906 38.6704 72.1596 37.8176C71.3287 36.9649 70.2017 36.4858 69.0266 36.4858C67.8515 36.4858 66.7245 36.9649 65.8936 37.8176C65.0627 38.6704 64.5959 39.827 64.5959 41.033V38.0015C64.5959 36.7955 64.129 35.6389 63.2981 34.7862C62.4672 33.9334 61.3402 33.4543 60.1651 33.4543C58.99 33.4543 57.863 33.9334 57.0321 34.7862C56.2011 35.6389 55.7343 36.7955 55.7343 38.0015V36.4858C55.7343 35.2798 55.2675 34.1232 54.4366 33.2704C53.6057 32.4177 52.4787 31.9386 51.3036 31.9386C50.1284 31.9386 49.0015 32.4177 48.1705 33.2704C47.3396 34.1232 46.8728 35.2798 46.8728 36.4858V45.5801Z" fill="white"/>
<path d="M46.8728 45.5801V19.8128C46.8728 18.6068 46.406 17.4502 45.5751 16.5975C44.7441 15.7447 43.6171 15.2656 42.442 15.2656C41.2669 15.2656 40.1399 15.7447 39.309 16.5975C38.4781 17.4502 38.0113 18.6068 38.0113 19.8128V55.9325L30.7596 48.4903C27.0673 44.701 20.1257 46.8382 20.1257 50.7639C20.1257 54.6896 20.2882 53.1588 27.6728 60.7374C35.0574 68.316 33.5805 77.4104 55.7343 77.4104C60.4348 77.4104 64.9427 75.4941 68.2664 72.083C71.5901 68.672 73.4574 64.0456 73.4574 59.2217V41.033C73.4574 39.827 72.9906 38.6704 72.1596 37.8176C71.3287 36.9649 70.2017 36.4858 69.0266 36.4858C67.8515 36.4858 66.7245 36.9649 65.8936 37.8176C65.0627 38.6704 64.5959 39.827 64.5959 41.033V38.0015C64.5959 36.7955 64.129 35.6389 63.2981 34.7862C62.4672 33.9334 61.3402 33.4543 60.1651 33.4543C58.99 33.4543 57.863 33.9334 57.0321 34.7862C56.2011 35.6389 55.7343 36.7955 55.7343 38.0015V36.4858C55.7343 35.2798 55.2675 34.1232 54.4366 33.2704C53.6057 32.4177 52.4787 31.9386 51.3036 31.9386C50.1284 31.9386 49.0015 32.4177 48.1705 33.2704C47.3396 34.1232 46.8728 35.2798 46.8728 36.4858V45.5801Z" fill="#E83C76" fill-opacity="0.05"/>
<path d="M69.0264 34.9702C67.8574 34.9679 66.7148 35.3271 65.7476 36.0009C65.3429 34.8129 64.5881 33.7836 63.5877 33.0557C62.5874 32.3278 61.3911 31.9374 60.1648 31.9387C58.7757 31.9409 57.4318 32.4454 56.3692 33.3635C55.5704 32.0014 54.2823 31.0157 52.7823 30.6188C51.2823 30.2219 49.6904 30.4455 48.3495 31.2415V19.8129C48.3495 18.2049 47.727 16.6628 46.6191 15.5258C45.5112 14.3888 44.0086 13.75 42.4418 13.75C40.875 13.75 39.3723 14.3888 38.2644 15.5258C37.1565 16.6628 36.5341 18.2049 36.5341 19.8129V52.2797L31.7932 47.4143C30.572 46.2273 29.0407 45.4304 27.386 45.1209C25.7312 44.8114 24.0245 45.0026 22.4738 45.6712C21.4114 46.0251 20.4785 46.7013 19.7982 47.6105C19.1179 48.5198 18.7222 49.6193 18.6633 50.764C18.6633 54.0531 19.0178 54.5079 21.8239 57.1149C22.9464 58.1456 24.4676 59.5704 26.6535 61.8137C28.2289 63.5197 29.634 65.3832 30.8479 67.3764C34.6879 73.318 38.3359 78.9262 55.7341 78.9262C60.8262 78.9262 65.7098 76.8502 69.3105 73.1549C72.9112 69.4596 74.9341 64.4477 74.9341 59.2218V41.0331C74.9341 39.4251 74.3117 37.883 73.2037 36.7459C72.0958 35.6089 70.5932 34.9702 69.0264 34.9702ZM71.9802 59.2218C71.9802 61.4113 71.56 63.5794 70.7436 65.6022C69.9271 67.6251 68.7304 69.4631 67.2218 71.0113C65.7132 72.5596 63.9223 73.7877 61.9512 74.6256C59.9801 75.4635 57.8676 75.8948 55.7341 75.8948C39.9162 75.8948 36.9919 71.3476 33.2849 65.6939C31.9698 63.518 30.4406 61.4864 28.7212 59.631C26.491 57.3423 24.9255 55.9023 23.7883 54.8413C21.6024 52.8102 21.6024 52.8103 21.6024 50.7337C21.6024 49.8243 22.3409 48.9755 23.5815 48.445C24.3152 48.1475 25.0966 47.9933 25.8855 47.9902C27.3056 47.957 28.6808 48.5019 29.7107 49.506L36.9772 56.9633C37.1845 57.1719 37.4471 57.3131 37.7323 57.3694C38.0174 57.4256 38.3123 57.3944 38.5802 57.2795C38.8481 57.1647 39.0771 56.9714 39.2385 56.7238C39.4 56.4761 39.4867 56.1851 39.4879 55.8872V19.8129C39.4879 19.0089 39.7991 18.2379 40.3531 17.6693C40.907 17.1008 41.6584 16.7815 42.4418 16.7815C43.2252 16.7815 43.9765 17.1008 44.5305 17.6693C45.0844 18.2379 45.3956 19.0089 45.3956 19.8129V45.5802C45.3956 45.9822 45.5512 46.3678 45.8282 46.652C46.1052 46.9363 46.4808 47.096 46.8725 47.096C47.2642 47.096 47.6399 46.9363 47.9169 46.652C48.1939 46.3678 48.3495 45.9822 48.3495 45.5802V36.4859C48.3495 35.6819 48.6607 34.9108 49.2146 34.3423C49.7686 33.7738 50.5199 33.4544 51.3033 33.4544C52.0867 33.4544 52.838 33.7738 53.392 34.3423C53.9459 34.9108 54.2572 35.6819 54.2572 36.4859V45.5802C54.2572 45.9822 54.4128 46.3678 54.6897 46.652C54.9667 46.9363 55.3424 47.096 55.7341 47.096C56.1258 47.096 56.5014 46.9363 56.7784 46.652C57.0554 46.3678 57.211 45.9822 57.211 45.5802V38.0016C57.211 37.1976 57.5222 36.4266 58.0762 35.8581C58.6301 35.2895 59.3814 34.9702 60.1648 34.9702C60.9483 34.9702 61.6996 35.2895 62.2535 35.8581C62.8075 36.4266 63.1187 37.1976 63.1187 38.0016V47.096C63.1187 47.498 63.2743 47.8835 63.5513 48.1677C63.8282 48.452 64.2039 48.6117 64.5956 48.6117C64.9873 48.6117 65.363 48.452 65.64 48.1677C65.9169 47.8835 66.0725 47.498 66.0725 47.096V41.0331C66.0725 40.2291 66.3837 39.458 66.9377 38.8895C67.4916 38.321 68.243 38.0016 69.0264 38.0016C69.8098 38.0016 70.5611 38.321 71.1151 38.8895C71.669 39.458 71.9802 40.2291 71.9802 41.0331V59.2218Z" fill="url(#paint0_linear_0_1)"/>
<path d="M51.1408 15.2655C51.1408 12.8535 50.2072 10.5403 48.5453 8.83482C46.8835 7.12929 44.6295 6.17114 42.2793 6.17114C39.929 6.17114 37.6751 7.12929 36.0132 8.83482C34.3513 10.5403 33.4177 12.8535 33.4177 15.2655C33.4177 15.6675 33.5733 16.053 33.8503 16.3373C34.1273 16.6215 34.5029 16.7812 34.8946 16.7812C35.2864 16.7812 35.662 16.6215 35.939 16.3373C36.216 16.053 36.3716 15.6675 36.3716 15.2655C36.3716 13.6575 36.994 12.1154 38.1019 10.9784C39.2098 9.84136 40.7124 9.20259 42.2793 9.20259C43.8461 9.20259 45.3487 9.84136 46.4566 10.9784C47.5645 12.1154 48.1869 13.6575 48.1869 15.2655C48.1869 15.6675 48.3426 16.053 48.6195 16.3373C48.8965 16.6215 49.2722 16.7812 49.6639 16.7812C50.0556 16.7812 50.4312 16.6215 50.7082 16.3373C50.9852 16.053 51.1408 15.6675 51.1408 15.2655Z" fill="#E83C76"/>
<path d="M5.32817 20.4042C5.63227 20.4194 5.93353 20.3378 6.1907 20.1705C6.44787 20.0032 6.64838 19.7585 6.76479 19.4698C6.88121 19.181 6.90783 18.8625 6.84101 18.5576C6.7742 18.2528 6.61722 17.9766 6.39155 17.7668L5.43155 16.7816H27.5854C27.9269 20.2601 29.4296 23.5104 31.8389 25.982C31.9762 26.1241 32.1396 26.2369 32.3195 26.3138C32.4995 26.3908 32.6926 26.4304 32.8875 26.4304C33.0825 26.4304 33.2755 26.3908 33.4555 26.3138C33.6355 26.2369 33.7988 26.1241 33.9361 25.982C34.2112 25.698 34.3656 25.3139 34.3656 24.9134C34.3656 24.513 34.2112 24.1288 33.9361 23.8449C32.8376 22.7187 31.9661 21.3814 31.3715 19.9093C30.7769 18.4373 30.4709 16.8594 30.4709 15.2658C30.4709 13.6723 30.7769 12.0944 31.3715 10.6224C31.9661 9.15033 32.8376 7.813 33.9361 6.68684C35.5894 4.99429 37.6942 3.84244 39.9849 3.37677C42.2755 2.91109 44.6493 3.15246 46.8064 4.0704C48.9635 4.98834 50.8072 6.54169 52.1046 8.53427C53.402 10.5269 54.0951 12.8693 54.0961 15.2658C54.0974 16.8587 53.7928 18.4362 53.1998 19.9082C52.6068 21.3802 51.737 22.7179 50.6401 23.8449C50.3651 24.1288 50.2107 24.513 50.2107 24.9134C50.2107 25.3139 50.3651 25.698 50.6401 25.982C50.9169 26.2643 51.2912 26.4228 51.6814 26.4228C52.0715 26.4228 52.4459 26.2643 52.7226 25.982C55.1421 23.5178 56.6466 20.2635 56.9761 16.7816L79.13 16.7816L78.1552 17.7668C78.0155 17.9101 77.9048 18.0802 77.8292 18.2675C77.7536 18.4547 77.7147 18.6554 77.7147 18.8581C77.7147 19.0608 77.7536 19.2615 77.8292 19.4487C77.9048 19.636 78.0155 19.8061 78.1552 19.9494C78.2948 20.0928 78.4606 20.2064 78.6431 20.284C78.8255 20.3616 79.0211 20.4015 79.2186 20.4015C79.4161 20.4015 79.6116 20.3616 79.7941 20.284C79.9765 20.2064 80.1423 20.0928 80.282 19.9494L83.797 16.3572C83.94 16.2158 84.0537 16.0463 84.1313 15.8588C84.209 15.6712 84.249 15.4696 84.249 15.2658C84.249 15.0621 84.209 14.8605 84.1313 14.6729C84.0537 14.4854 83.94 14.3159 83.797 14.1745L80.2967 10.5823C80.1571 10.4389 79.9913 10.3253 79.8088 10.2477C79.6264 10.1701 79.4308 10.1302 79.2333 10.1302C79.0359 10.1302 78.8403 10.1701 78.6578 10.2477C78.4754 10.3253 78.3096 10.4389 78.17 10.5823C78.0303 10.7256 77.9195 10.8957 77.844 11.083C77.7684 11.2702 77.7295 11.4709 77.7295 11.6736C77.7295 11.8763 77.7684 12.0769 77.844 12.2642C77.9195 12.4514 78.0303 12.6216 78.17 12.7649L79.1447 13.7501H56.9909C56.6252 10.011 54.9191 6.54469 52.2037 4.02366C49.4883 1.50263 45.9572 0.106689 42.2955 0.106689C38.6339 0.106689 35.1027 1.50263 32.3873 4.02366C29.6719 6.54469 27.9659 10.011 27.6001 13.7501H5.44632L6.40632 12.7649C6.68835 12.4735 6.84601 12.079 6.84462 11.6682C6.84324 11.2575 6.68292 10.8641 6.39893 10.5747C6.25832 10.4314 6.09158 10.3179 5.90822 10.2407C5.72487 10.1635 5.5285 10.1241 5.33033 10.1249C4.9301 10.1263 4.54681 10.2908 4.26478 10.5823L0.764476 14.1745C0.621537 14.3159 0.50784 14.4854 0.430183 14.6729C0.352525 14.8605 0.3125 15.0621 0.3125 15.2658C0.3125 15.4696 0.352525 15.6712 0.430183 15.8588C0.50784 16.0463 0.621537 16.2158 0.764476 16.3572L4.26478 19.9494C4.40331 20.0945 4.56882 20.2095 4.75149 20.2876C4.93417 20.3657 5.13027 20.4053 5.32817 20.4042V20.4042Z" fill="#E83C76"/>
<defs>
<linearGradient id="paint0_linear_0_1" x1="46.7987" y1="13.75" x2="46.7987" y2="78.9262" gradientUnits="userSpaceOnUse">
<stop stop-color="#E83C76"/>
<stop offset="1" stop-color="#959595"/>
</linearGradient>
</defs>
</svg>
