<svg width="72" height="116" viewBox="0 0 72 116" fill="none" xmlns="http://www.w3.org/2000/svg">
<path d="M37.2626 62.7546L24.5894 40.2273C23.9962 39.1729 23.0183 38.4041 21.8707 38.09C20.7232 37.7759 19.5 37.9423 18.4702 38.5524C17.4404 39.1626 16.6885 40.1666 16.3798 41.3435C16.071 42.5205 16.2308 43.7741 16.8239 44.8284L34.5963 76.4197L24.5459 73.6465C19.4466 72.2508 14.4353 77.729 16.3586 81.1479C18.282 84.5667 17.6788 83.1573 27.8774 85.9487C38.076 88.7401 41.2547 97.4578 60.6682 85.9549C64.7873 83.5143 67.7951 79.4983 69.03 74.7904C70.2649 70.0825 69.6258 65.0683 67.2533 60.8509L58.3075 44.9492C57.7143 43.8949 56.7364 43.1261 55.5888 42.812C54.4413 42.4979 53.2181 42.6642 52.1883 43.2744C51.1585 43.8845 50.4066 44.8885 50.0979 46.0655C49.7891 47.2425 49.9489 48.496 50.542 49.5504L49.0511 46.9001C48.4579 45.8458 47.48 45.077 46.3324 44.7629C45.1849 44.4488 43.9617 44.6151 42.9319 45.2253C41.9022 45.8354 41.1502 46.8394 40.8415 48.0164C40.5327 49.1934 40.6925 50.4469 41.2857 51.5013L40.5402 50.1761C39.947 49.1218 38.9691 48.353 37.8216 48.0389C36.674 47.7248 35.4508 47.8911 34.421 48.5013C33.3913 49.1114 32.6393 50.1154 32.3306 51.2924C32.0218 52.4694 32.1816 53.7229 32.7748 54.7773L37.2626 62.7546Z" fill="white"/>
<path d="M37.2626 62.7546L24.5894 40.2273C23.9962 39.1729 23.0183 38.4041 21.8707 38.09C20.7232 37.7759 19.5 37.9423 18.4702 38.5524C17.4404 39.1626 16.6885 40.1666 16.3798 41.3435C16.071 42.5205 16.2308 43.7741 16.8239 44.8284L34.5963 76.4197L24.5459 73.6465C19.4466 72.2508 14.4353 77.729 16.3586 81.1479C18.282 84.5667 17.6788 83.1573 27.8774 85.9487C38.076 88.7401 41.2547 97.4578 60.6682 85.9549C64.7873 83.5143 67.7951 79.4983 69.03 74.7904C70.2649 70.0825 69.6258 65.0683 67.2533 60.8509L58.3075 44.9492C57.7143 43.8949 56.7364 43.1261 55.5888 42.812C54.4413 42.4979 53.2181 42.6642 52.1883 43.2744C51.1585 43.8845 50.4066 44.8885 50.0979 46.0655C49.7891 47.2425 49.9489 48.496 50.542 49.5504L49.0511 46.9001C48.4579 45.8458 47.48 45.077 46.3324 44.7629C45.1849 44.4488 43.9617 44.6151 42.9319 45.2253C41.9022 45.8354 41.1502 46.8394 40.8415 48.0164C40.5327 49.1934 40.6925 50.4469 41.2857 51.5013L40.5402 50.1761C39.947 49.1218 38.9691 48.353 37.8216 48.0389C36.674 47.7248 35.4508 47.8911 34.421 48.5013C33.3913 49.1114 32.6393 50.1154 32.3306 51.2924C32.0218 52.4694 32.1816 53.7229 32.7748 54.7773L37.2626 62.7546Z" fill="#E83C76" fill-opacity="0.05"/>
<path d="M51.4576 41.9754C50.4322 42.5805 49.6076 43.4877 49.0914 44.579C48.3622 43.9253 47.4885 43.4636 46.5455 43.2339C45.6026 43.0042 44.6188 43.0133 43.6791 43.2605C42.7395 43.5077 41.8721 43.9855 41.152 44.6526C40.432 45.3198 39.8808 46.1562 39.546 47.0898C38.1761 46.3136 36.5626 46.1207 35.0529 46.5526C33.5432 46.9844 32.2582 48.0065 31.4746 49.3986L25.8835 39.4601C25.0927 38.0543 23.7888 37.0292 22.2587 36.6105C20.7286 36.1917 19.0977 36.4134 17.7246 37.227C16.3516 38.0405 15.349 39.3792 14.9374 40.9485C14.5257 42.5178 14.7388 44.1892 15.5296 45.595L31.4979 73.9794L24.9504 72.1873C23.2911 71.7808 21.551 71.8807 19.9445 72.4748C18.3379 73.0689 16.9348 74.1311 15.908 75.5309C15.1544 76.3897 14.6719 77.4619 14.5239 78.6061C14.376 79.7504 14.5696 80.9131 15.0792 81.9409C16.6969 84.8165 17.2312 85.03 20.9725 85.8522C22.4575 86.1914 24.4968 86.6262 27.5027 87.4602C29.7303 88.1317 31.8854 89.0333 33.9346 90.1511C40.2274 93.3309 46.1825 96.3398 61.4285 87.3062C65.8908 84.6622 69.1493 80.3116 70.4872 75.2113C71.825 70.1111 71.1326 64.6791 68.5623 60.1102L59.6165 44.2086C58.8257 42.8028 57.5218 41.7777 55.9917 41.3589C54.4616 40.9401 52.8307 41.1619 51.4576 41.9754ZM65.9739 61.6439C68.1487 65.5099 68.7346 70.1062 67.6026 74.4218C66.4705 78.7374 63.7134 82.4187 59.9376 84.6559C46.0763 92.869 41.2773 90.4119 35.2556 87.4072C33.035 86.1834 30.6952 85.2011 28.2744 84.4763C25.1945 83.6333 23.1069 83.174 21.5885 82.8369C18.6741 82.1962 18.6741 82.1962 17.6528 80.3807C17.2129 79.5989 17.4351 78.4601 18.2688 77.3654C18.7601 76.7192 19.3701 76.1777 20.0642 75.7716C20.6714 75.3897 21.3461 75.1347 22.0493 75.0213C22.7526 74.9078 23.4705 74.9382 24.1617 75.1106L34.1768 77.8517C34.4617 77.931 34.7633 77.9218 35.0435 77.8254C35.3237 77.729 35.5699 77.5496 35.7509 77.3099C35.932 77.0703 36.0397 76.7811 36.0606 76.479C36.0814 76.177 36.0144 75.8755 35.8681 75.6128L18.1181 44.0612C17.7227 43.3583 17.6162 42.5226 17.822 41.738C18.0278 40.9533 18.5291 40.284 19.2156 39.8772C19.9021 39.4705 20.7176 39.3596 21.4826 39.569C22.2477 39.7784 22.8996 40.2909 23.295 40.9938L35.9683 63.5212C36.166 63.8726 36.492 64.1289 36.8745 64.2336C37.257 64.3383 37.6647 64.2828 38.008 64.0794C38.3512 63.876 38.6019 63.5414 38.7048 63.1491C38.8077 62.7567 38.7544 62.3389 38.5567 61.9874L34.0838 54.0366C33.6884 53.3337 33.5819 52.498 33.7877 51.7134C33.9935 50.9287 34.4948 50.2594 35.1813 49.8526C35.8678 49.4458 36.6833 49.335 37.4484 49.5444C38.2134 49.7538 38.8653 50.2663 39.2608 50.9692L43.7337 58.92C43.9314 59.2714 44.2574 59.5277 44.6399 59.6324C45.0224 59.7371 45.4301 59.6817 45.7734 59.4783C46.1166 59.2749 46.3673 58.9402 46.4702 58.5479C46.5731 58.1556 46.5199 57.7377 46.3221 57.3863L42.5947 50.7606C42.1993 50.0577 42.0928 49.222 42.2986 48.4373C42.5044 47.6527 43.0057 46.9834 43.6922 46.5766C44.3787 46.1698 45.1942 46.059 45.9593 46.2683C46.7243 46.4777 47.3762 46.9903 47.7717 47.6932L52.2446 55.644C52.4423 55.9954 52.7683 56.2517 53.1508 56.3564C53.5333 56.4611 53.941 56.4057 54.2843 56.2023C54.6275 55.9989 54.8782 55.6642 54.9811 55.2719C55.084 54.8796 55.0308 54.4617 54.833 54.1103L51.8511 48.8097C51.4557 48.1068 51.3492 47.2711 51.555 46.4865C51.7608 45.7018 52.2621 45.0325 52.9486 44.6257C53.6351 44.219 54.4506 44.1081 55.2156 44.3175C55.9807 44.5269 56.6326 45.0394 57.028 45.7423L65.9739 61.6439Z" fill="url(#paint0_linear_0_1)"/>
<path d="M15.5906 53.2801C15.846 53.1273 16.0515 52.9005 16.1813 52.6282C16.3111 52.3559 16.3594 52.0505 16.3199 51.7505C16.2804 51.4505 16.155 51.1694 15.9596 50.9428C15.7641 50.7162 15.5074 50.5542 15.2218 50.4773C12.9406 49.8515 10.893 48.5462 9.3377 46.7263C7.78243 44.9063 6.78935 42.6535 6.48398 40.2526C6.17861 37.8516 6.57466 35.4103 7.62207 33.2373C8.66949 31.0642 10.3212 29.2569 12.3686 28.0438C14.4159 26.8308 16.7668 26.2664 19.1243 26.422C21.4818 26.5776 23.7399 27.4462 25.6133 28.9181C27.4866 30.39 28.8911 32.399 29.6493 34.6913C30.4074 36.9835 30.4851 39.4561 29.8725 41.7965C29.8205 41.9915 29.8067 42.1951 29.8318 42.3956C29.857 42.596 29.9206 42.7892 30.019 42.9641C30.1174 43.1391 30.2487 43.2922 30.4052 43.4148C30.5618 43.5373 30.7405 43.6269 30.9311 43.6782C31.3125 43.7813 31.7184 43.7255 32.0603 43.5229C32.4023 43.3203 32.6524 42.9874 32.756 42.5969C33.267 40.6532 33.3994 38.6261 33.1457 36.6315C32.892 34.6369 32.2572 32.7139 31.2775 30.9724C30.2978 29.231 28.9925 27.7053 27.4362 26.4825C25.8799 25.2597 24.1031 24.3639 22.2074 23.8462C21.5696 23.6706 20.9204 23.5416 20.2646 23.4602L21.3562 5.92228L22.2675 6.99013C22.4595 7.2373 22.7216 7.41731 23.0177 7.50543C23.3138 7.59355 23.6295 7.58545 23.9213 7.48225C24.2131 7.37905 24.4668 7.1858 24.6475 6.92907C24.8281 6.67234 24.9269 6.36473 24.9302 6.04849C24.9441 5.84531 24.9184 5.6414 24.8544 5.44872C24.7905 5.25604 24.6896 5.07845 24.5578 4.92635L21.251 1.07277C21.1219 0.908102 20.9609 0.772687 20.7782 0.675054C20.5954 0.577422 20.3948 0.519692 20.1891 0.505501C19.9833 0.49131 19.7768 0.520968 19.5826 0.592605C19.3884 0.66424 19.2107 0.776301 19.0607 0.921728L15.3355 4.33045C15.1867 4.46414 15.0651 4.62672 14.978 4.80878C14.8908 4.99085 14.8398 5.18876 14.8277 5.39105C14.8003 5.69442 14.8618 5.99909 15.0043 6.26609C15.1468 6.5331 15.3638 6.7503 15.6277 6.88992C15.8915 7.02954 16.1901 7.08523 16.4853 7.04987C16.7806 7.01451 17.059 6.8897 17.2849 6.69141L18.3285 5.75504L17.204 23.4184C13.708 23.7214 10.425 25.2758 7.93059 27.8093C5.43618 30.3428 3.88951 33.6936 3.56169 37.2744C3.23386 40.8552 4.14582 44.4375 6.13768 47.3933C8.12954 50.3492 11.0742 52.4899 14.4555 53.4403C14.6455 53.4914 14.8436 53.5036 15.0384 53.4761C15.2332 53.4486 15.4208 53.382 15.5906 53.2801Z" fill="#E83C76"/>
<path d="M20.9062 87.0226C18.8584 88.2359 16.5069 88.8003 14.1488 88.6443C11.7908 88.4883 9.53233 87.619 7.65892 86.1462C5.7855 84.6734 4.38132 82.6634 3.62395 80.3703C2.86658 78.0771 2.79004 75.6039 3.40399 73.2633C4.01794 70.9228 5.29483 68.82 7.07317 67.2209C8.85151 65.6218 11.0514 64.5982 13.3947 64.2796C15.7381 63.961 18.1195 64.3616 20.238 65.4308C22.3564 66.5001 24.1167 68.1899 25.2963 70.2866C25.494 70.638 25.8199 70.8943 26.2025 70.999C26.585 71.1037 26.9927 71.0482 27.336 70.8449C27.6792 70.6415 27.9299 70.3068 28.0328 69.9145C28.1357 69.5222 28.0824 69.1043 27.8847 68.7529C25.9076 65.2384 22.6479 62.6758 18.8226 61.6288C14.9974 60.5818 10.9201 61.1362 7.48755 63.1701C4.05502 65.2039 1.5485 68.5506 0.519391 72.4738C-0.509719 76.3971 0.0228817 80.5755 2.00003 84.09C2.97344 85.8346 4.27595 87.3627 5.83179 88.5854C7.38764 89.808 9.16575 90.7008 11.0627 91.2119C11.6629 91.377 12.2737 91.4992 12.8906 91.5776L11.7129 109.944L10.7905 108.918C10.5955 108.684 10.336 108.516 10.0459 108.435C9.75582 108.355 9.44864 108.366 9.16456 108.468C8.88048 108.569 8.63272 108.756 8.4537 109.004C8.27468 109.252 8.17272 109.55 8.16117 109.858C8.14651 110.063 8.17261 110.27 8.23789 110.465C8.30317 110.66 8.40629 110.84 8.54105 110.993L11.8032 114.767C11.9328 114.924 12.0921 115.053 12.2716 115.146C12.4512 115.239 12.6472 115.293 12.8479 115.306C13.0486 115.319 13.25 115.291 13.4398 115.222C13.6296 115.153 13.8041 115.046 13.9526 114.907L17.7186 111.509C17.8676 111.373 17.9886 111.208 18.0745 111.024C18.1605 110.84 18.2096 110.639 18.2189 110.435C18.2464 110.132 18.1849 109.827 18.0424 109.56C17.8999 109.293 17.6828 109.076 17.419 108.937C17.1552 108.797 16.8566 108.741 16.5613 108.777C16.2661 108.812 15.9877 108.937 15.7618 109.135L14.7182 110.071L15.9347 91.6821C18.2256 91.5131 20.4479 90.8012 22.4266 89.6024C22.7699 89.399 23.0205 89.0644 23.1234 88.672C23.2263 88.2797 23.1731 87.8619 22.9754 87.5104C22.7777 87.159 22.4517 86.9027 22.0692 86.798C21.6866 86.6933 21.2789 86.7487 20.9357 86.9521L20.9062 87.0226Z" fill="#E83C76"/>
<defs>
<linearGradient id="paint0_linear_0_1" x1="21.5362" y1="34.9686" x2="54.855" y2="91.2011" gradientUnits="userSpaceOnUse">
<stop stop-color="#E83C76"/>
<stop offset="1" stop-color="#959595"/>
</linearGradient>
</defs>
</svg>
