<svg width="360" height="232" viewBox="0 0 360 232" fill="none" xmlns="http://www.w3.org/2000/svg">
<g filter="url(#filter0_d_444_2313)">
<path d="M87.622 66.8677L30.6467 173.511C28.9536 176.678 30.783 180.905 33.8391 180.905H326.162C329.211 180.905 331.041 176.686 329.362 173.52L272.76 66.8766C272.049 65.5388 270.851 64.7361 269.56 64.7361H90.8144C89.5302 64.7361 88.3322 65.5388 87.622 66.8677Z" fill="white" stroke="#969595" stroke-width="2" stroke-miterlimit="10"/>
<path d="M172.986 75.8625C171.926 75.8625 171.038 76.3424 171 76.9299C170.962 77.5273 171.811 78.0071 172.881 78.0071C173.959 78.0071 174.847 77.5175 174.866 76.9299C174.886 76.3424 174.045 75.8625 172.986 75.8625Z" fill="#969595"/>
<path d="M186.505 75.8625C185.445 75.8625 184.605 76.3424 184.624 76.9299C184.643 77.5273 185.541 78.0071 186.61 78.0071C187.689 78.0071 188.529 77.5175 188.491 76.9299C188.453 76.3424 187.555 75.8625 186.505 75.8625Z" fill="#969595"/>
<path d="M144.077 83.6865C142.96 83.6865 141.919 84.2153 141.747 84.8714C141.575 85.5373 142.358 86.0759 143.494 86.0759C144.63 86.0759 145.671 85.5275 145.824 84.8714C145.977 84.2153 145.194 83.6865 144.077 83.6865Z" fill="#969595"/>
<path d="M172.623 83.6865C171.506 83.6865 170.57 84.2153 170.523 84.8714C170.484 85.5373 171.372 86.0759 172.509 86.0759C173.645 86.0759 174.58 85.5275 174.609 84.8714C174.628 84.2153 173.74 83.6865 172.623 83.6865Z" fill="#969595"/>
<path d="M158.35 83.6865C157.233 83.6865 156.24 84.2153 156.135 84.8714C156.03 85.5373 156.87 86.0759 158.006 86.0759C159.142 86.0759 160.135 85.5275 160.221 84.8714C160.307 84.2153 159.467 83.6865 158.35 83.6865Z" fill="#969595"/>
<path d="M201.17 83.6865C200.053 83.6865 199.212 84.2153 199.308 84.8714C199.394 85.5373 200.396 86.0759 201.532 86.0759C202.669 86.0759 203.499 85.5275 203.394 84.8714C203.289 84.2153 202.296 83.6865 201.17 83.6865Z" fill="#969595"/>
<path d="M186.896 83.6865C185.779 83.6865 184.891 84.2153 184.92 84.8714C184.949 85.5373 185.884 86.0759 187.021 86.0759C188.157 86.0759 189.045 85.5275 188.997 84.8714C188.959 84.2153 188.013 83.6865 186.896 83.6865Z" fill="#969595"/>
<path d="M214.851 83.6865C213.734 83.6865 212.951 84.2153 213.094 84.8714C213.247 85.5373 214.287 86.0759 215.424 86.0759C216.56 86.0759 217.343 85.5275 217.171 84.8714C217.018 84.2153 215.977 83.6865 214.851 83.6865Z" fill="#969595"/>
<path d="M141.967 92.4314C140.783 92.4314 139.666 93.0287 139.484 93.7632C139.293 94.5074 140.114 95.1243 141.317 95.1243C142.52 95.1243 143.637 94.5172 143.809 93.7632C143.981 93.0287 143.151 92.4314 141.967 92.4314Z" fill="#969595"/>
<path d="M172.222 92.4314C171.038 92.4314 170.045 93.0287 169.998 93.7632C169.95 94.5074 170.895 95.1243 172.098 95.1243C173.301 95.1243 174.303 94.5172 174.323 93.7632C174.342 93.0287 173.406 92.4314 172.222 92.4314Z" fill="#969595"/>
<path d="M157.089 92.4314C155.906 92.4314 154.846 93.0287 154.731 93.7632C154.617 94.5074 155.495 95.1243 156.698 95.1243C157.901 95.1243 158.961 94.5172 159.056 93.7632C159.161 93.0287 158.283 92.4314 157.089 92.4314Z" fill="#969595"/>
<path d="M202.468 92.4314C201.284 92.4314 200.406 93.0287 200.501 93.7632C200.606 94.5074 201.656 95.1243 202.869 95.1243C204.072 95.1243 204.95 94.5172 204.836 93.7632C204.712 93.0287 203.652 92.4314 202.468 92.4314Z" fill="#969595"/>
<path d="M187.345 92.4314C186.161 92.4314 185.225 93.0287 185.244 93.7632C185.273 94.5074 186.276 95.1243 187.479 95.1243C188.681 95.1243 189.617 94.5172 189.569 93.7632C189.531 93.0287 188.529 92.4314 187.345 92.4314Z" fill="#969595"/>
<path d="M216.961 92.4314C215.777 92.4314 214.946 93.0287 215.118 93.7632C215.29 94.5074 216.407 95.1243 217.61 95.1243C218.813 95.1243 219.634 94.5172 219.443 93.7632C219.262 93.0287 218.154 92.4314 216.961 92.4314Z" fill="#969595"/>
<path d="M139.599 102.293C138.339 102.293 137.145 102.968 136.935 103.801C136.716 104.643 137.585 105.338 138.864 105.338C140.143 105.338 141.346 104.643 141.537 103.801C141.728 102.959 140.859 102.293 139.599 102.293Z" fill="#969595"/>
<path d="M123.512 102.293C122.251 102.293 120.991 102.968 120.695 103.801C120.399 104.643 121.192 105.338 122.481 105.338C123.769 105.338 125.03 104.643 125.307 103.801C125.574 102.959 124.772 102.293 123.512 102.293Z" fill="#969595"/>
<path d="M171.764 102.293C170.503 102.293 169.444 102.968 169.396 103.801C169.348 104.643 170.341 105.338 171.63 105.338C172.909 105.338 173.979 104.643 174.007 103.801C174.026 102.959 173.024 102.293 171.764 102.293Z" fill="#969595"/>
<path d="M155.677 102.293C154.416 102.293 153.29 102.968 153.156 103.801C153.022 104.643 153.958 105.338 155.237 105.338C156.517 105.338 157.653 104.643 157.758 103.801C157.872 102.959 156.937 102.293 155.677 102.293Z" fill="#969595"/>
<path d="M203.929 102.293C202.668 102.293 201.733 102.968 201.847 103.801C201.962 104.643 203.098 105.338 204.377 105.338C205.657 105.338 206.592 104.643 206.449 103.801C206.325 102.959 205.189 102.293 203.929 102.293Z" fill="#969595"/>
<path d="M187.851 102.293C186.591 102.293 185.598 102.968 185.627 103.801C185.655 104.643 186.725 105.338 188.004 105.338C189.283 105.338 190.286 104.643 190.228 103.801C190.171 102.959 189.111 102.293 187.851 102.293Z" fill="#969595"/>
<path d="M235.31 102.293C234.05 102.293 233.248 102.968 233.515 103.801C233.792 104.643 235.053 105.338 236.342 105.338C237.621 105.338 238.423 104.643 238.127 103.801C237.831 102.959 236.571 102.293 235.31 102.293Z" fill="#969595"/>
<path d="M219.347 102.293C218.087 102.293 217.218 102.968 217.409 103.801C217.6 104.643 218.803 105.338 220.083 105.338C221.362 105.338 222.231 104.643 222.011 103.801C221.792 102.959 220.598 102.293 219.347 102.293Z" fill="#969595"/>
<path d="M136.907 113.476C135.56 113.476 134.271 114.239 134.033 115.199C133.785 116.169 134.701 116.952 136.066 116.952C137.441 116.952 138.73 116.159 138.95 115.199C139.169 114.249 138.253 113.476 136.907 113.476Z" fill="#969595"/>
<path d="M119.731 113.476C118.385 113.476 117.029 114.239 116.685 115.199C116.342 116.169 117.182 116.952 118.547 116.952C119.912 116.952 121.287 116.159 121.602 115.199C121.927 114.249 121.077 113.476 119.731 113.476Z" fill="#969595"/>
<path d="M171.248 113.476C169.902 113.476 168.766 114.239 168.709 115.199C168.651 116.169 169.711 116.952 171.086 116.952C172.461 116.952 173.597 116.159 173.625 115.199C173.654 114.249 172.594 113.476 171.248 113.476Z" fill="#969595"/>
<path d="M154.073 113.476C152.727 113.476 151.514 114.239 151.361 115.199C151.209 116.169 152.202 116.952 153.567 116.952C154.942 116.952 156.154 116.159 156.278 115.199C156.412 114.249 155.419 113.476 154.073 113.476Z" fill="#969595"/>
<path d="M205.59 113.476C204.244 113.476 203.26 114.239 203.384 115.199C203.518 116.169 204.731 116.952 206.105 116.952C207.48 116.952 208.464 116.159 208.301 115.199C208.148 114.249 206.936 113.476 205.59 113.476Z" fill="#969595"/>
<path d="M188.414 113.476C187.068 113.476 186.008 114.239 186.047 115.199C186.085 116.169 187.221 116.952 188.596 116.952C189.971 116.952 191.03 116.159 190.964 115.199C190.906 114.249 189.761 113.476 188.414 113.476Z" fill="#969595"/>
<path d="M239.091 113.476C237.745 113.476 236.905 114.239 237.211 115.199C237.526 116.169 238.891 116.952 240.266 116.952C241.641 116.952 242.471 116.159 242.128 115.199C241.803 114.249 240.438 113.476 239.091 113.476Z" fill="#969595"/>
<path d="M222.04 113.476C220.694 113.476 219.777 114.239 219.997 115.199C220.216 116.169 221.505 116.952 222.88 116.952C224.255 116.952 225.162 116.159 224.913 115.199C224.675 114.249 223.386 113.476 222.04 113.476Z" fill="#969595"/>
<path d="M133.823 126.294C132.381 126.294 130.987 127.175 130.711 128.282C130.424 129.398 131.388 130.309 132.859 130.309C134.329 130.309 135.732 129.398 135.99 128.282C136.238 127.175 135.265 126.294 133.823 126.294Z" fill="#969595"/>
<path d="M115.406 126.294C113.964 126.294 112.485 127.175 112.093 128.282C111.702 129.398 112.58 130.309 114.05 130.309C115.521 130.309 117.01 129.398 117.373 128.282C117.736 127.175 116.848 126.294 115.406 126.294Z" fill="#969595"/>
<path d="M170.656 126.294C169.215 126.294 167.992 127.175 167.926 128.282C167.859 129.398 168.995 130.309 170.475 130.309C171.945 130.309 173.177 129.398 173.205 128.282C173.234 127.175 172.098 126.294 170.656 126.294Z" fill="#969595"/>
<path d="M152.239 126.294C150.798 126.294 149.49 127.175 149.318 128.282C149.146 129.398 150.196 130.309 151.667 130.309C153.137 130.309 154.454 129.398 154.598 128.282C154.741 127.175 153.681 126.294 152.239 126.294Z" fill="#969595"/>
<path d="M207.48 126.294C206.038 126.294 204.988 127.175 205.131 128.282C205.284 129.398 206.602 130.309 208.072 130.309C209.542 130.309 210.593 129.398 210.411 128.282C210.239 127.175 208.931 126.294 207.48 126.294Z" fill="#969595"/>
<path d="M189.073 126.294C187.631 126.294 186.495 127.175 186.533 128.282C186.572 129.398 187.803 130.309 189.273 130.309C190.744 130.309 191.88 129.398 191.813 128.282C191.737 127.175 190.515 126.294 189.073 126.294Z" fill="#969595"/>
<path d="M225.133 126.294C223.692 126.294 222.718 127.175 222.975 128.282C223.233 129.398 224.627 130.309 226.107 130.309C227.577 130.309 228.542 129.398 228.255 128.282C227.969 127.175 226.575 126.294 225.133 126.294Z" fill="#969595"/>
<path d="M243.955 126.294C242.513 126.294 241.539 127.175 241.797 128.282C242.055 129.398 243.449 130.309 244.929 130.309C246.399 130.309 247.363 129.398 247.077 128.282C246.79 127.175 245.396 126.294 243.955 126.294Z" fill="#969595"/>
<path d="M130.262 141.1C128.706 141.1 127.188 142.128 126.853 143.411C126.519 144.704 127.541 145.771 129.135 145.771C130.73 145.771 132.257 144.704 132.553 143.411C132.84 142.128 131.818 141.1 130.262 141.1Z" fill="#969595"/>
<path d="M169.969 141.1C168.413 141.1 167.095 142.128 167.009 143.411C166.933 144.704 168.155 145.771 169.749 145.771C171.344 145.771 172.661 144.704 172.709 143.411C172.757 142.128 171.525 141.1 169.969 141.1Z" fill="#969595"/>
<path d="M150.11 141.1C148.554 141.1 147.132 142.128 146.931 143.411C146.731 144.704 147.848 145.771 149.442 145.771C151.037 145.771 152.459 144.704 152.631 143.411C152.793 142.128 151.667 141.1 150.11 141.1Z" fill="#969595"/>
<path d="M209.676 141.1C208.12 141.1 206.993 142.128 207.165 143.411C207.337 144.704 208.769 145.771 210.363 145.771C211.958 145.771 213.075 144.704 212.865 143.411C212.664 142.128 211.232 141.1 209.676 141.1Z" fill="#969595"/>
<path d="M189.827 141.1C188.271 141.1 187.049 142.128 187.097 143.411C187.145 144.704 188.472 145.771 190.066 145.771C191.66 145.771 192.882 144.704 192.797 143.411C192.711 142.128 191.384 141.1 189.827 141.1Z" fill="#969595"/>
<path d="M228.704 141.1C227.148 141.1 226.117 142.128 226.412 143.411C226.708 144.704 228.236 145.771 229.83 145.771C231.425 145.771 232.437 144.704 232.112 143.411C231.788 142.128 230.26 141.1 228.704 141.1Z" fill="#969595"/>
<path d="M169.167 158.433C167.477 158.433 166.035 159.637 165.949 161.155C165.854 162.683 167.181 163.936 168.909 163.936C170.637 163.936 172.079 162.683 172.127 161.155C172.184 159.637 170.857 158.433 169.167 158.433Z" fill="#969595"/>
<path d="M190.706 158.433C189.016 158.433 187.698 159.637 187.755 161.155C187.813 162.683 189.264 163.936 190.992 163.936C192.72 163.936 194.038 162.683 193.942 161.155C193.837 159.637 192.395 158.433 190.706 158.433Z" fill="#969595"/>
</g>
<defs>
<filter id="filter0_d_444_2313" x="-1" y="-10" width="362" height="241.905" filterUnits="userSpaceOnUse" color-interpolation-filters="sRGB">
<feFlood flood-opacity="0" result="BackgroundImageFix"/>
<feColorMatrix in="SourceAlpha" type="matrix" values="0 0 0 0 0 0 0 0 0 0 0 0 0 0 0 0 0 0 127 0" result="hardAlpha"/>
<feOffset dy="20"/>
<feGaussianBlur stdDeviation="15"/>
<feComposite in2="hardAlpha" operator="out"/>
<feColorMatrix type="matrix" values="0 0 0 0 0.909804 0 0 0 0 0.235294 0 0 0 0 0.462745 0 0 0 0.05 0"/>
<feBlend mode="normal" in2="BackgroundImageFix" result="effect1_dropShadow_444_2313"/>
<feBlend mode="normal" in="SourceGraphic" in2="effect1_dropShadow_444_2313" result="shape"/>
</filter>
</defs>
</svg>

